<?xml version="1.0" encoding="UTF-8" standalone="no"?>
<svg
   xmlns:dc="http://purl.org/dc/elements/1.1/"
   xmlns:cc="http://creativecommons.org/ns#"
   xmlns:rdf="http://www.w3.org/1999/02/22-rdf-syntax-ns#"
   xmlns:svg="http://www.w3.org/2000/svg"
   xmlns="http://www.w3.org/2000/svg"
   xmlns:sodipodi="http://sodipodi.sourceforge.net/DTD/sodipodi-0.dtd"
   xmlns:inkscape="http://www.inkscape.org/namespaces/inkscape"
   height="313"
   width="948"
   version="1.1"
   id="svg46"
   sodipodi:docname="illustrations-kc-score-bgd-image-67.svg"
   inkscape:version="0.92.4 (5da689c313, 2019-01-14)">
  <metadata
     id="metadata52">
    <rdf:RDF>
      <cc:Work
         rdf:about="">
        <dc:format>image/svg+xml</dc:format>
        <dc:type
           rdf:resource="http://purl.org/dc/dcmitype/StillImage" />
        <dc:title></dc:title>
      </cc:Work>
    </rdf:RDF>
  </metadata>
  <defs
     id="defs50" />
  <sodipodi:namedview
     pagecolor="#ffffff"
     bordercolor="#666666"
     borderopacity="1"
     objecttolerance="10"
     gridtolerance="10"
     guidetolerance="10"
     inkscape:pageopacity="0"
     inkscape:pageshadow="2"
     inkscape:window-width="1680"
     inkscape:window-height="987"
     id="namedview48"
     showgrid="false"
     inkscape:zoom="1.4514768"
     inkscape:cx="545.23308"
     inkscape:cy="59.834661"
     inkscape:window-x="-8"
     inkscape:window-y="-8"
     inkscape:window-maximized="1"
     inkscape:current-layer="svg46" />
  <g
     id="g44"
     fill-rule="evenodd"
     fill="none">
    <path
       d="m0 311.5h948"
       id="path2"
       stroke-width="2"
       stroke="#00796d" />
    <path
       d="m726.324 209.717c1.187 0 2.149-.961 2.149-2.146a2.147 2.147 0 0 0 -2.149-2.146c-1.186 0-2.148.96-2.148 2.146 0 1.185.962 2.146 2.148 2.146m0 30.9c1.187 0 2.149-.961 2.149-2.146a2.147 2.147 0 0 0 -2.149-2.146c-1.186 0-2.148.96-2.148 2.146 0 1.185.962 2.146 2.148 2.146m0-15.45a2.144 2.144 0 0 0 1.514-3.668 2.15 2.15 0 0 0 -3.032 3.048c.403.4.95.623 1.518.62"
       id="path4"
       fill-rule="nonzero"
       fill="#00796d" />
    <path
       d="m721.597 138.475-6.875 171.667m16.329-171.667 8.594 172.525m25.804-172.146c-12.273-6.992-22.548-13.728-29.458-14.97a10.47 10.47 0 0 1 -.177 9.555 10.769 10.769 0 0 1 -3.044 3.504c5.476 4.443 14.866 9.19 25.077 15.003a104.42 104.42 0 0 0 36.802 12.279 103.42 103.42 0 0 0 -29.2-25.37zm-43.769-20.296a10.594 10.594 0 0 1 10.041 0l.319.175c3.363-5.754 2.327-19.074 2.2-34.587a101.487 101.487 0 0 0 -7.875-37.513 101.482 101.482 0 0 0 -7.3 37.64c.064 15.275-.765 28.484 2.614 34.285zm-5.023 5.325c-6.86 1.246-17.184 7.982-29.457 15.007a103.498 103.498 0 0 0 -29.2 25.335 104.25 104.25 0 0 0 36.802-12.308c10.21-5.827 19.6-10.585 25.077-15.039-4.04-3.031-5.384-8.453-3.222-12.995z"
       id="path6"
       stroke-width="2"
       stroke="#00796d" />
    <path
       d="m735.824 132.755c-2.77 5.239-9.269 7.243-14.514 4.477-5.246-2.767-7.253-9.256-4.484-14.495 2.77-5.238 9.268-7.243 14.514-4.478a10.73 10.73 0 0 1 5.249 6.321c.84 2.719.565 5.66-.765 8.175"
       id="path8"
       stroke-width="2"
       stroke="#00796d" />
    <path
       d="m853.505 209.717a2.144 2.144 0 0 0 1.539-3.658 2.15 2.15 0 0 0 -3.673 1.512c0 1.18.953 2.138 2.134 2.146m0 30.9a2.144 2.144 0 0 0 1.539-3.658 2.15 2.15 0 0 0 -3.673 1.512c0 1.18.953 2.138 2.134 2.146m0-15.45a2.144 2.144 0 0 0 1.533-3.663 2.15 2.15 0 0 0 -3.667 1.531c0 1.177.955 2.132 2.134 2.132"
       id="path10"
       fill-rule="nonzero"
       fill="#00796d" />
    <path
       d="m848.792 68.092-11.172 242.05m20.626-242.05 10.313 242.05m19.929-273.122c-13.522 4.074-25.52 6.92-31.101 11.058a10.643 10.643 0 0 1 6.833 6.758c.512 1.5.681 3.097.497 4.672 6.993-.905 16.89-4.446 28.134-7.84a102.872 102.872 0 0 0 34.149-18.303 102.44 102.44 0 0 0 -38.512 3.653zm-45.199 18.197c.9-3.46 3.483-6.234 6.87-7.38l.352-.113c-1.905-6.404-12.363-14.873-23.813-25.52a102.623 102.623 0 0 0 -32.908-20.204 102.464 102.464 0 0 0 22.532 31.363c11.322 10.519 20.418 20.253 26.968 21.854z"
       id="path12"
       stroke-width="2"
       stroke="#00796d" />
    <path
       d="m843.683 62.083c-3.88 5.81-6.05 17.961-9.404 31.7a100.973 100.973 0 0 0 -1.463 38.684c7.736-10.605 13.348-22.543 16.539-35.184 2.794-11.428 5.82-21.508 6.313-28.555-5.102.832-10.104-1.94-11.985-6.645z"
       id="path14"
       stroke-width="2"
       stroke="#00796d"
       fill-rule="nonzero"
       fill="#fff" />
    <path
       d="m863.682 54.745a10.721 10.721 0 0 1 -3.065 11.529 10.753 10.753 0 0 1 -11.838 1.575 10.728 10.728 0 0 1 -5.98-10.326 10.732 10.732 0 0 1 7.27-9.464c5.606-1.89 11.688 1.097 13.613 6.686"
       id="path16"
       stroke-width="2"
       stroke="#00796d" />
    <path
       d="m804.26 244.064c.165 3.066-1.36 5.973-3.962 7.556a8.128 8.128 0 0 1 -8.46 0c-2.602-1.583-4.127-4.49-3.962-7.556v-11.608c-.165-3.067 1.36-5.974 3.962-7.557a8.128 8.128 0 0 1 8.46 0c2.603 1.583 4.127 4.49 3.963 7.557v11.608z"
       id="path18"
       fill-rule="nonzero"
       fill="#63c532" />
    <path
       d="m806 244.156c0 5.25-4.253 9.507-9.5 9.507s-9.5-4.256-9.5-9.507v-12.648c0-5.251 4.253-9.508 9.5-9.508s9.5 4.257 9.5 9.508zm-9.068-6.752v73.596"
       id="path20"
       stroke-width="2"
       stroke="#00796d" />
    <path
       d="m827.3 281.347c0 4.16-3.425 7.532-7.65 7.532s-7.65-3.372-7.65-7.532v-10.28c0-4.16 3.425-7.533 7.65-7.533s7.65 3.373 7.65 7.533z"
       id="path22"
       fill-rule="nonzero"
       fill="#63c532" />
    <path
       d="m828.945 281.295c.37 3.182-1.154 6.29-3.92 7.995a8.646 8.646 0 0 1 -9.05 0c-2.766-1.705-4.29-4.813-3.92-7.995v-11.02c-.37-3.183 1.154-6.291 3.92-7.996a8.646 8.646 0 0 1 9.05 0c2.766 1.705 4.29 4.813 3.92 7.995v11.02zm-8.02-5.933v34.638"
       id="path24"
       stroke-width="2"
       stroke="#00796d" />
    <path
       d="m81.415 232.276c.189 3.566-1.563 6.948-4.554 8.79a9.245 9.245 0 0 1 -9.722 0c-2.99-1.842-4.743-5.224-4.554-8.79v-13.502c-.189-3.567 1.563-6.948 4.554-8.79a9.245 9.245 0 0 1 9.722 0c2.99 1.842 4.743 5.223 4.554 8.79zm-45.415 43.664c0 4.986-4.03 9.027-9 9.027s-9-4.041-9-9.026v-12.32c0-4.985 4.03-9.026 9-9.026s9 4.041 9 9.026v12.32z"
       id="path26"
       fill-rule="nonzero"
       fill="#63c532" />
    <g
       id="g42"
       stroke-width="2"
       stroke="#00796d">
      <path
         d="m84 232.11c0 6.188-4.989 11.204-11.143 11.204s-11.143-5.016-11.143-11.204v-14.906c0-6.188 4.99-11.204 11.143-11.204 6.154 0 11.143 5.016 11.143 11.204zm-10.714-7.887v86.777m-35.636-36.052a9.754 9.754 0 0 1 -4.545 9.386 9.923 9.923 0 0 1 -10.496 0 9.754 9.754 0 0 1 -4.545-9.386v-12.938a9.754 9.754 0 0 1 4.545-9.386 9.923 9.923 0 0 1 10.496 0 9.754 9.754 0 0 1 4.546 9.386v12.937zm-8.936-6.469v41.653"
         id="path28" />
      <g
         id="g36">
        <path
           d="m528.677 174.077v11.687m93.323 6.83-15.468-41.573h-104.044l-15.488 41.572h135zm-81.806 118.406h-22.755v-39.542h22.814l-.06 39.542zm50.176-16.784h-22.755v-22.738h22.814l-.06 22.738zm0-33.848h-22.755v-22.757h22.814l-.06 22.757zm-50.176 0h-22.755v-22.757h22.814l-.06 22.757zm0-33.847h-22.755v-22.778h22.814l-.06 22.778zm50.513 0h-22.755v-22.778h22.815zm23.132-34.525v119.004h-118.539v-119.004"
           id="path30" />
        <path
           d="m580.002 174.434v11.851m-44.2-39.852.985 26.023m-15.961-26.023-.985 26.023m-12.12-8.762h40.713m-40.042-8.6h39.096m-39.865-10.094-2.68 29.434h46.466l-3.035-29.353zm92.064 0 2.661 28.383h-46.14l2.996-28.383z"
           id="path32"
           fill-rule="nonzero"
           fill="#fff" />
        <path
           d="m571.686 146.383-.978 25.11m15.869-25.11.959 25.11m12.034-8.454h-40.426m39.76-8.299h-38.801m39.584-9.74 2.661 28.383h-46.14l2.995-28.325z"
           id="path34" />
      </g>
      <path
         d="m188.921 268.411c-.239 7.046-6.195 12.637-13.46 12.637-7.266 0-13.222-5.591-13.461-12.637v-33.774c.239-7.046 6.195-12.637 13.46-12.637 7.266 0 13.222 5.591 13.461 12.637zm-13.46-31.863v74.452m.434-57.337 6.947-8.557m-6.947 24.817 6.947-8.558m-6.947-7.702-6.948-8.557m6.948 24.817-6.948-8.558m56.448 7.046c-.24 7.046-6.195 12.637-13.46 12.637-7.266 0-13.222-5.591-13.461-12.637v-33.774c.239-7.046 6.195-12.637 13.46-12.637 7.266 0 13.222 5.591 13.46 12.637v33.774zm-13.461-31.863v74.452m-.434-57.337 6.947-8.557m-6.947 24.817 6.947-8.558m-6.079-7.702-6.947-8.557m6.947 24.817-6.947-8.558m55.579 8.15c0 7.315-6.026 13.245-13.46 13.245-7.435 0-13.461-5.93-13.461-13.245v-34.27c0-7.315 6.026-13.245 13.46-13.245 7.435 0 13.461 5.93 13.461 13.244zm-12.592-32.967v74.452m-.434-57.337 6.947-8.557m-7.816 8.557-6.947-8.557m6.947 24.817-6.947-8.558m7.816 8.558 6.947-8.558"
         id="path38" />
      <path
         d="m640.758 268.849v42.151m0-34.409 4.263-5.161m-4.263 5.161-4.263-5.161m23.021-15.249c0-3.585-2.926-6.492-6.535-6.492h-.443c.254-.68.388-1.398.396-2.122.002-3.37-2.601-6.175-5.981-6.446a6.45 6.45 0 0 0 -1.83-7.854 6.552 6.552 0 0 0 -8.113 0 6.45 6.45 0 0 0 -1.83 7.854c-3.467.168-6.19 3.012-6.186 6.461.009.74.143 1.474.395 2.17a7.467 7.467 0 0 0 -.854-.095c-3.61 0-6.535 2.907-6.535 6.493s2.926 6.493 6.535 6.493h.316c-1.188 3.092.162 6.577 3.13 8.08 2.97 1.503 6.6.54 8.42-2.232a6.54 6.54 0 0 0 7.319 2.639 6.482 6.482 0 0 0 4.644-6.208 6.518 6.518 0 0 0 -.459-2.358c.355.069.715.105 1.076.11 3.61 0 6.535-2.907 6.535-6.493zm23.873 12.668v42.151m.853-34.409 4.263-5.161m-5.116 5.161-4.263-5.161m23.874-15.45a6.597 6.597 0 0 0 -1.904-4.657 6.493 6.493 0 0 0 -4.615-1.93h-.443c.254-.69.388-1.418.396-2.153-.005-3.415-2.605-6.257-5.981-6.539.413-.871.63-1.824.632-2.79a6.6 6.6 0 0 0 -3.167-5.974 6.49 6.49 0 0 0 -6.72 0 6.6 6.6 0 0 0 -3.166 5.973 6.55 6.55 0 0 0 .633 2.775c-3.468.17-6.191 3.056-6.187 6.555.009.75.143 1.495.395 2.2a7.004 7.004 0 0 0 -.854-.095c-3.61 0-6.535 2.949-6.535 6.587 0 3.637 2.926 6.586 6.535 6.586h.332c-1.15 3.125.202 6.624 3.149 8.14a6.489 6.489 0 0 0 8.386-2.207 6.494 6.494 0 0 0 7.331 2.702c2.768-.837 4.66-3.41 4.647-6.323a6.423 6.423 0 0 0 -.475-2.392c.36.07.726.107 1.092.112 3.6 0 6.519-2.942 6.519-6.57z"
         id="path40" />
    </g>
  </g>
  <g
     id="g878"
     transform="translate(504.57937,176.37411)"
     style="fill:none;fill-rule:evenodd">
    <path
       id="path862"
       d="M 93.157,48.697 H 77.53 L 57.577,59.955 a 0.159,0.159 0 0 1 -0.221,0 0.151,0.151 0 0 1 0,-0.217 L 63.843,48.697 C 50.142,48.697 39.027,37.814 39,24.373 39,10.912 50.122,0 63.843,0 H 93.157 C 106.877,0 118,10.912 118,24.373 117.973,37.814 106.858,48.697 93.157,48.697 Z"
       inkscape:connector-curvature="0"
       style="fill:#ffffff;fill-rule:nonzero;stroke:#00796d;stroke-width:2" />
    <path
       id="path864"
       d="m 104.967,125.5 c 0,0 13.996,4.746 11.799,-15.06 C 114.568,90.632 88.743,94.276 86.324,93.424 83.906,92.572 83.448,90.074 75.705,82.257 67.962,74.44 52.447,73 52.447,73 H 10.073 C 3.908,73 6.43,77.026 6.43,77.026 l 3.643,6.289 C 10.073,83.315 0,89.192 0,95.364 v 21.203 c 0,4.408 7.551,8.037 9.233,9.433"
       inkscape:connector-curvature="0"
       style="fill:#bae659;fill-rule:nonzero;stroke:#00796d;stroke-width:2" />
    <path
       id="path866"
       d="M 101.443,14 H 56.967 c -1.965,0 -3.557,1.558 -3.557,3.48 v 0.936 H 50 v 9.168 h 3.41 v 0.96 C 53.423,30.457 55.012,32 56.967,32 h 44.476 c 1.955,0 3.544,-1.543 3.557,-3.456 V 17.48 c 0,-0.923 -0.375,-1.808 -1.042,-2.46 A 3.597,3.597 0 0 0 101.443,14 Z"
       inkscape:connector-curvature="0"
       style="stroke:#00796d;stroke-width:2" />
    <path
       id="path868"
       d="M 69,18 H 99 V 28 H 69 Z"
       inkscape:connector-curvature="0"
       style="fill:#f9a51a;fill-rule:nonzero" />
    <path
       id="path870"
       d="m 26,77 c 0,0 5.06,16.532 15.18,15.987 10.122,-0.545 37.82,0 37.82,0"
       inkscape:connector-curvature="0"
       style="stroke:#00796d;stroke-width:2" />
    <circle
       id="circle872"
       r="13.5"
       cy="121.5"
       cx="91.5"
       style="fill:#ffffff;fill-rule:nonzero;stroke:#00796d;stroke-width:2" />
    <circle
       id="circle874"
       r="13.5"
       cy="121.5"
       cx="22.5"
       style="fill:#ffffff;fill-rule:nonzero;stroke:#00796d;stroke-width:2" />
    <path
       id="path876"
       d="M 36,125 H 77"
       inkscape:connector-curvature="0"
       style="stroke:#00796d;stroke-width:2" />
  </g>
</svg>
