<svg width="1070" height="209" xmlns="http://www.w3.org/2000/svg" xmlns:xlink="http://www.w3.org/1999/xlink">
    <defs>
        <path id="a" d="M0 0h1v68.33H0z"/>
        <path id="c" d="M0 0h1v49.238H0z"/>
        <path id="e" d="M0 0h1v49.238H0z"/>
        <path id="g" d="M0 0h1v49.238H0z"/>
    </defs>
    <g fill="none" fill-rule="evenodd">
        <path d="M470 94.954c0 8.602-7.164 15.575-16 15.575-8.837 0-16-6.973-16-15.575 0-8.603 7.163-15.575 16-15.575 8.836 0 16 6.972 16 15.575" fill="#F8A908"/>
        <path d="M472.834 160.992s17.27-9.811 13.673-29.195c-1.622-8.738-5.519-14.693-9.595-19.144-4.966-5.424-12.953-5.504-12.953-5.504l-20.709.957c-4.798 5.743-22.06 4.148-25.577-8.296l-1.809-8.15c-.563-1.598-.91-3.975-2.828-3.017-1.92.957.247 6.617-.32 7.099-.947.802-1.275 3.385-1.275 3.385-.004 0-2.056-.225-1.256 3.881.801 4.11 1.434 12.442 11.438 18.552 5.244 3.203 10.514 6.417 10.922 18.433l1.897 60.82a5.368 5.368 0 0 0 5.37 5.169h3.096c2.803 0 5.461-1.302 7.104-3.568 1.883-2.597 3.761-6.688 3.502-12.51-.503-11.306-10.324-8.794-7.302 4.019 3.021 12.812 11.08 12.059 11.08 12.059h9.335c1.084 0 2.09-.56 2.658-1.482a3.105 3.105 0 0 0-.141-3.473 7.056 7.056 0 0 1-1.355-4.652s.573-8.857 1.243-19.732c0 0 9.32-36.23 4.282-54.418" fill="#F8A908"/>
        <path d="M468 92.442c0 8.88-7.163 16.077-16 16.077s-16-7.197-16-16.077c0-8.88 7.163-16.078 16-16.078s16 7.198 16 16.078z" stroke="#FFF" stroke-width="2" stroke-linecap="round" stroke-linejoin="round"/>
        <path d="M441.862 105.765c-4.886 5.94-22.466 4.29-26.048-8.58l-1.842-8.43c-.573-1.651-.926-4.11-2.88-3.12-1.955.99.251 6.845-.327 7.343-.964.83-1.297 3.501-1.297 3.501-.005 0-2.094-.234-1.28 4.013.816 4.252 1.461 12.868 11.649 19.187 5.34 3.312 10.707 6.635 11.123 19.063l1.932 62.9c.105 2.982 2.522 5.345 5.469 5.345h3.152c2.855 0 5.562-1.347 7.236-3.69 1.917-2.686 3.83-6.916 3.566-12.938-.513-11.692-10.515-9.094-7.437 4.157 3.077 13.25 11.284 12.47 11.284 12.47h9.507a3.17 3.17 0 0 0 2.707-1.532h0a3.255 3.255 0 0 0-.144-3.591h0a7.377 7.377 0 0 1-1.38-4.811s.584-9.16 1.266-20.408c0 0 9.491-37.469 4.36-56.277" stroke="#FFF" stroke-width="2" stroke-linecap="round" stroke-linejoin="round"/>
        <path d="M463 104.5s8.319.083 13.492 5.65c4.247 4.57 8.305 10.68 9.994 19.65 3.748 19.896-14.242 29.967-14.242 29.967M396.298 159.767s16.438-8.461 11.914-28.136C402.142 105.228 387 103.495 387 103.495M363 103.495s-7.57 2.718-12.68 8.386c-4.195 4.652-9.158 12.109-9.314 21.395-.33 19.674 12.86 26.491 12.86 26.491" stroke="#FFF" stroke-width="2" stroke-linecap="round" stroke-linejoin="round"/>
        <path d="m354 138.665 1.98 62.97c.109 2.986 2.588 5.352 5.609 5.352h3.232c2.928 0 5.705-1.349 7.42-3.694 1.966-2.69 3.928-6.924 3.657-12.953-.526-11.705-10.782-9.104-7.626 4.161 3.155 13.265 11.57 12.486 11.57 12.486h9.75c1.132 0 2.183-.581 2.776-1.535h0a3.193 3.193 0 0 0-.147-3.596h0a7.258 7.258 0 0 1-1.415-4.816s.598-9.17 1.297-20.43c0 0 5.004-19.285 5.897-37.142M392 91.94c0 9.156-7.387 16.58-16.5 16.58S359 101.095 359 91.94c0-9.157 7.387-16.58 16.5-16.58S392 82.782 392 91.94zM477 110.53c5.625-6.39 11-7.035 11-7.035M511 103.495s7.57 2.718 12.68 8.386c4.195 4.652 9.158 12.109 9.314 21.395.33 19.674-12.86 26.491-12.86 26.491" stroke="#FFF" stroke-width="2" stroke-linecap="round" stroke-linejoin="round"/>
        <path d="m521 138.665-1.982 62.97c-.109 2.986-2.59 5.352-5.613 5.352h-3.235c-2.93 0-5.709-1.349-7.426-3.694-1.968-2.69-3.93-6.924-3.66-12.953.526-11.705 10.79-9.104 7.633 4.161-3.159 13.265-11.58 12.486-11.58 12.486h-9.759a3.27 3.27 0 0 1-2.777-1.535h0a3.191 3.191 0 0 1 .147-3.596h0a7.253 7.253 0 0 0 1.416-4.816s-.598-9.17-1.298-20.43c0 0-2.136-8.224-3.866-18.902M483 91.94c0 9.156 7.387 16.58 16.5 16.58s16.5-7.424 16.5-16.58c0-9.157-7.387-16.58-16.5-16.58S483 82.782 483 91.94z" stroke="#FFF" stroke-width="2" stroke-linecap="round" stroke-linejoin="round"/>
        <path d="M523.54 35.165h-31.96c-3.628 0-6.58-3.035-6.58-6.764 0-3.537 2.655-6.448 6.024-6.74 1.237-4.536 5.31-7.753 9.956-7.753.741 0 1.49.086 2.23.255 2.318-2.624 5.583-4.12 9.05-4.12 4.94 0 9.383 3.077 11.27 7.73h.01c4.666 0 8.46 3.901 8.46 8.696 0 4.796-3.794 8.696-8.46 8.696M257 62.296a38.064 38.064 0 0 0-24.535-9.044H187" stroke="#FFF" stroke-width="2"/>
        <path fill="#FFF" d="m256 63.419 4 .887-1.255-4.02z"/>
        <path d="M196.681 106.51c-5.062-12.941-2.956-28.08 6.319-39.19" stroke="#FFF" stroke-width="2"/>
        <path fill="#FFF" d="m201 65.585 4-1.28-.866 4.02z"/>
        <path d="M248 127.4c-13.058 5.752-28.653 3.813-40-5.817" stroke="#FFF" stroke-width="2"/>
        <path fill="#FFF" d="m207.271 123.592-1.271-4.02 4 .871z"/>
        <path d="M268.942 79.379c4.24 12.446 1.927 26.639-6.942 37.18" stroke="#FFF" stroke-width="2"/>
        <path fill="#FFF" d="m264 117.29-4 1.278.865-4.02z"/>
        <path d="M235.5 115.553s-25.875-23.909 0-52.252c0 0 25.875 23.908 0 52.252" fill="#AFD139"/>
        <path d="M233.5 117.563s-25.875-23.91 0-52.252c0 0 25.875 23.908 0 52.252zM232.935 92.072l-10.338-10.264m10.338 22.395L221 92.353m11.935-13.239-6.037-5.994m6.165 18.562 10.34-10.264m-10.34 22.396L245 91.964m-11.937-13.238 6.039-5.995m-6.167 44.832V65.311" stroke="#FFF" stroke-width="2"/>
        <path d="M820 134.646c-12.538 0-23.303-7.445-28-18.088h56c-4.697 10.643-15.462 18.088-28 18.088M742 107.515c-12.538 0-23.303-7.445-28-18.088h56c-4.697 10.643-15.462 18.088-28 18.088" fill="#007C6D"/>
        <path d="M818 137.66c-12.538 0-23.303-7.444-28-18.087h56c-4.697 10.643-15.462 18.087-28 18.087M740 110.53c-12.538 0-23.303-7.445-28-18.088h56c-4.697 10.643-15.462 18.087-28 18.087M773 6.527c0 3.053 2.462 5.526 5.5 5.526S784 9.58 784 6.527 781.538 1 778.5 1 773 3.474 773 6.527M778.959 208V20.092m5.557.158h-11.114m44.52 33.082-77.856-27.541m-16.67 68.563v16.85m11.113-7.917v16.808m-5.557-5.824v17.194M839 118.444l-21.228-64.696-21.067 64.696m-35.411-27.958-21.228-64.695L719 90.486M828 134.437v17.291m7-25.121v17.29" stroke="#FFF" stroke-width="2"/>
        <path d="M812 103.996c0 3.61 2.909 6.533 6.5 6.533 3.59 0 6.5-2.924 6.5-6.533 0-3.606-2.91-6.53-6.5-6.53-3.591 0-6.5 2.924-6.5 6.53M733 76.865c0 3.61 2.909 6.533 6.5 6.533 3.59 0 6.5-2.924 6.5-6.533 0-3.607-2.91-6.53-6.5-6.53-3.591 0-6.5 2.923-6.5 6.53" stroke="#FFF" stroke-width="2"/>
        <path d="M824 83.398c10.859-2.643 19.247-11.757 21-23.112M845 49.233c-2.63-10.91-11.7-19.338-23-21.102M811 28.131c-10.859 2.643-19.247 11.758-21 23.112M790 63.301c2.63 10.912 11.7 19.339 23 21.102" stroke="#FFF" stroke-width="2" stroke-dasharray="4.01,4.01"/>
        <path d="M845.914 58.011a29.324 29.324 0 0 0 0-4.493m-26.177-26.304a28.464 28.464 0 0 0-4.474 0m-26.177 26.304a29.301 29.301 0 0 0 0 4.493m26.177 26.304a28.453 28.453 0 0 0 4.474 0" stroke="#FFF" stroke-width="2"/>
        <g transform="translate(568 139.67)">
            <mask id="b" fill="#fff">
                <use xlink:href="#a"/>
            </mask>
            <path stroke="#FFF" stroke-width="2" mask="url(#b)" d="M.5 0v68.33"/>
        </g>
        <path stroke="#FFF" stroke-width="2" d="M568.5 109.524v8.039M568.5 78.374v8.039M580 98.47c0 6.108-4.925 11.054-11 11.054s-11-4.946-11-11.054c0-6.1 4.925-11.053 11-11.053s11 4.953 11 11.053"/>
        <path d="M580 98.47c0 6.108-4.925 11.054-11 11.054s-11-4.946-11-11.054c0-6.1 4.925-11.053 11-11.053s11 4.953 11 11.053zM580 128.615c0 6.102-4.923 11.055-10.999 11.055-6.076 0-11.001-4.953-11.001-11.055 0-6.11 4.925-11.052 11.001-11.052S580 122.504 580 128.615zM580 68.327c0 6.104-4.922 11.052-10.999 11.052-6.076 0-11.001-4.948-11.001-11.052 0-6.107 4.925-11.055 11.001-11.055 6.077 0 10.999 4.948 10.999 11.055zM685 143.868c0 7.67-6.046 13.89-13.5 13.89-7.457 0-13.5-6.22-13.5-13.89v-18.445c0-7.67 6.043-13.889 13.5-13.889 7.454 0 13.5 6.22 13.5 13.89v18.444zM670.5 134.646V208M0 207.498h1070M104.5 16.073s-23.625 18.649 0 39.19c23.625-20.541 0-39.19 0-39.19zM81.117 55.38s-3.11 24.896 22.767 22.877c2.01-26-22.767-22.878-22.767-22.878z" stroke="#FFF" stroke-width="2"/>
        <path d="M105.117 78.257s-3.11-24.899 22.767-22.878c2.01 26-22.767 22.878-22.767 22.878zM104.5 23.107v162.786" stroke="#FFF" stroke-width="2"/>
        <path stroke="#FFF" stroke-width="2" d="m81 55.262 23.56 23.112L128 55.613M123.85 208c1.438-9.177-7.977-11.114-7.977-11.114s.647-7.243-6.782-10.43c-7.637-3.277-14.714 3.818-14.714 3.818s-4.527-8.4-16.98-8.4c-13.587 0-15.469 8.209-15.469 8.209s-11.027 0-12.928 6.265M75 109.524s-18 14.346 0 30.146c18-15.8 0-30.146 0-30.146zM57.091 138.757S54.658 158.24 74.91 156.66c1.573-20.348-17.818-17.904-17.818-17.904z"/>
        <path d="M76.091 156.66s-2.433-19.484 17.818-17.904c1.574 20.349-17.818 17.905-17.818 17.905zM75.5 114.549v67.325" stroke="#FFF" stroke-width="2"/>
        <path stroke="#FFF" stroke-width="2" d="m57 138.665 18.547 18.087L94 138.94M141 47.223v12.059m6-6.03h-12"/>
        <path stroke="#FFF" stroke-width="2" stroke-dasharray="3.001,2.001" d="M154 53.755h32"/>
        <path stroke="#FFF" stroke-width="2" d="m104 37.175-6-8.039M104 47.223l6-8.039M96 61.291v8.04h-8M113 61.291v8.04h8M76 130.626l-5-6.029M89 149.216h-6M67.5 143.689v6.029"/>
        <g transform="translate(909 158.762)">
            <mask id="d" fill="#fff">
                <use xlink:href="#c"/>
            </mask>
            <path stroke="#FFF" stroke-width="2" mask="url(#d)" d="M.5 0v49.238"/>
        </g>
        <path stroke="#FFF" stroke-width="2" d="m910 166.801 5-6.029M909 166.801l-5-6.029M932 142.555c0-4.285-3.428-7.76-7.656-7.76-.178 0-.344.043-.518.055.277-.803.458-1.654.458-2.554 0-4.063-3.092-7.358-7.017-7.693a7.773 7.773 0 0 0 .752-3.3c0-4.284-3.428-7.76-7.657-7.76s-7.657 3.476-7.657 7.76c0 1.174.278 2.277.74 3.275-4.04.213-7.26 3.571-7.26 7.718 0 .918.185 1.786.474 2.604-.331-.045-.66-.104-1.003-.104-4.228 0-7.656 3.474-7.656 7.76 0 4.284 3.428 7.759 7.656 7.759.13 0 .25-.033.378-.04a7.793 7.793 0 0 0-.515 2.737c0 4.285 3.428 7.76 7.657 7.76 2.676 0 5.025-1.397 6.393-3.504 1.37 2.107 3.718 3.504 6.394 3.504 4.228 0 7.656-3.475 7.656-7.76 0-1-.202-1.95-.543-2.828.414.07.834.13 1.268.13 4.228 0 7.656-3.474 7.656-7.759z"/>
        <g transform="translate(960 158.762)">
            <mask id="f" fill="#fff">
                <use xlink:href="#e"/>
            </mask>
            <path stroke="#FFF" stroke-width="2" mask="url(#f)" d="M.5 0v49.238"/>
        </g>
        <path stroke="#FFF" stroke-width="2" d="m961 166.801 5-6.029M960 166.801l-5-6.029M983 142.555c0-4.285-3.428-7.76-7.656-7.76-.178 0-.344.043-.518.055.277-.803.458-1.654.458-2.554 0-4.063-3.092-7.358-7.017-7.693a7.773 7.773 0 0 0 .752-3.3c0-4.284-3.428-7.76-7.657-7.76-4.228 0-7.657 3.476-7.657 7.76 0 1.174.278 2.277.74 3.275-4.04.213-7.26 3.571-7.26 7.718 0 .918.185 1.786.474 2.604-.331-.045-.66-.104-1.003-.104-4.228 0-7.656 3.474-7.656 7.76 0 4.284 3.428 7.759 7.656 7.759.13 0 .25-.033.378-.04a7.793 7.793 0 0 0-.515 2.737c0 4.285 3.429 7.76 7.657 7.76 2.676 0 5.025-1.397 6.393-3.504 1.37 2.107 3.718 3.504 6.394 3.504 4.228 0 7.656-3.475 7.656-7.76 0-1-.202-1.95-.543-2.828.414.07.834.13 1.268.13 4.228 0 7.656-3.474 7.656-7.759z"/>
        <g transform="translate(1012 158.762)">
            <mask id="h" fill="#fff">
                <use xlink:href="#g"/>
            </mask>
            <path stroke="#FFF" stroke-width="2" mask="url(#h)" d="M.5 0v49.238"/>
        </g>
        <path stroke="#FFF" stroke-width="2" d="m1012 166.801 5-6.029M1012 166.801l-5-6.029M1035 142.555c0-4.285-3.428-7.76-7.656-7.76-.178 0-.344.043-.518.055.277-.803.458-1.654.458-2.554 0-4.063-3.092-7.358-7.017-7.693a7.773 7.773 0 0 0 .752-3.3c0-4.284-3.428-7.76-7.657-7.76s-7.657 3.476-7.657 7.76c0 1.174.278 2.277.74 3.275-4.04.213-7.26 3.571-7.26 7.718 0 .918.185 1.786.474 2.604-.331-.045-.66-.104-1.003-.104-4.228 0-7.656 3.474-7.656 7.76 0 4.284 3.428 7.759 7.656 7.759.13 0 .25-.033.378-.04a7.793 7.793 0 0 0-.515 2.737c0 4.285 3.428 7.76 7.656 7.76 2.677 0 5.026-1.397 6.394-3.504 1.37 2.107 3.717 3.504 6.394 3.504 4.228 0 7.656-3.475 7.656-7.76 0-1-.202-1.95-.543-2.828.414.07.833.13 1.268.13 4.228 0 7.656-3.474 7.656-7.759zM930.06 56.267h-22.44c-2.548 0-4.62-2.063-4.62-4.6 0-2.404 1.864-4.385 4.229-4.583.87-3.085 3.729-5.272 6.991-5.272.52 0 1.046.058 1.565.174a8.576 8.576 0 0 1 6.354-2.802 8.587 8.587 0 0 1 7.913 5.256h.008c3.275 0 5.94 2.653 5.94 5.914 0 3.261-2.665 5.913-5.94 5.913"/>
    </g>
</svg>
