<svg width="205" height="182" xmlns="http://www.w3.org/2000/svg" xmlns:xlink="http://www.w3.org/1999/xlink">
    <defs>
        <path d="M0 73.501C0 114.094 33.133 147 74 147c40.87 0 74-32.906 74-73.499C148 32.911 114.87 0 74 0 33.133 0 0 32.91 0 73.501z" id="a"/>
        <path d="M0 73.501C0 114.094 33.133 147 74 147c40.87 0 74-32.906 74-73.499C148 32.911 114.87 0 74 0 33.133 0 0 32.91 0 73.501z" id="c"/>
        <path d="M0 73.501C0 114.094 33.133 147 74 147c40.87 0 74-32.906 74-73.499C148 32.911 114.87 0 74 0 33.133 0 0 32.91 0 73.501z" id="e"/>
        <path d="M0 73.501C0 114.094 33.133 147 74 147c40.87 0 74-32.906 74-73.499C148 32.911 114.87 0 74 0 33.133 0 0 32.91 0 73.501z" id="g"/>
        <path d="M0 73.501C0 114.094 33.133 147 74 147c40.87 0 74-32.906 74-73.499C148 32.911 114.87 0 74 0 33.133 0 0 32.91 0 73.501z" id="h"/>
        <path d="M0 73.501C0 114.094 33.133 147 74 147c40.87 0 74-32.906 74-73.499C148 32.911 114.87 0 74 0 33.133 0 0 32.91 0 73.501z" id="i"/>
        <path d="M0 73.501C0 114.094 33.133 147 74 147c40.87 0 74-32.906 74-73.499C148 32.911 114.87 0 74 0 33.133 0 0 32.91 0 73.501z" id="k"/>
        <path d="M0 73.501C0 114.094 33.133 147 74 147c40.87 0 74-32.906 74-73.499C148 32.911 114.87 0 74 0 33.133 0 0 32.91 0 73.501z" id="m"/>
        <path d="M0 73.501C0 114.094 33.133 147 74 147c40.87 0 74-32.906 74-73.499C148 32.911 114.87 0 74 0 33.133 0 0 32.91 0 73.501z" id="n"/>
        <path d="M0 73.501C0 114.094 33.133 147 74 147c40.87 0 74-32.906 74-73.499C148 32.911 114.87 0 74 0 33.133 0 0 32.91 0 73.501z" id="p"/>
    </defs>
    <g fill="none" fill-rule="evenodd">
        <path d="M148 107.002C148 145.108 117.109 176 79 176c-38.107 0-69-30.892-69-68.998C10 68.892 40.893 38 79 38c38.109 0 69 30.892 69 69.002" fill="#00796D"/>
        <g transform="translate(0 35)">
            <mask id="b" fill="#fff">
                <use xlink:href="#a"/>
            </mask>
            <path d="M132.902 101.195c-.092-.186-2.012-4.202-2.535-4.195-1.03.013-.967 2.241-1.228 3.082-3.116 6.192-2.7-1.666-6.4-2.65-2.722-.723-10.43 4.065-12.171 5.626-3.151 2.821-9.513 2.906-9.956 7.789-.097 1.07-1.204 9.001-.182 9.69 3.293 2.223 10.573-4.093 14.544-3.028 2.974.805 3.217 1.275 5.82 1.778-4.56 9.911 12.371 1.718 14.997-2.2 2.91-4.344.014-10.79-2.889-15.892z" stroke="#FFF" stroke-width="1.5" stroke-linecap="round" mask="url(#b)"/>
        </g>
        <g transform="translate(0 35)">
            <mask id="d" fill="#fff">
                <use xlink:href="#c"/>
            </mask>
            <path d="M116.905 83.676c-.202-.969-.995-.686-1.866-.43-.623.138 6.427 7.527 7.44 8.055.833.798 7.105 2.43 8.76 2.622 1.654.193 1.814.032 1.75-.576-.06-.566-1.882-1.271-3.752-2.705-2.294-2.169-3.842-4.275-7.886-5.917-2.653-1.074-2.217 1.275-4.446-1.049z" stroke="#FFF" stroke-width="1.5" stroke-linecap="round" mask="url(#d)"/>
        </g>
        <g transform="translate(0 35)">
            <mask id="f" fill="#fff">
                <use xlink:href="#e"/>
            </mask>
            <path d="M39.698 98.005c-.485-.078-.905.774-1.372 1.662-2.518 2.802-7.462 6.905-4.306 10.702 1.974 2.378 4.018-2.426 4.994-6.742 1.007-3.263 1.257-5.527.684-5.622z" stroke="#FFF" stroke-width="1.5" stroke-linecap="round" mask="url(#f)"/>
        </g>
        <g transform="translate(0 35)">
            <mask id="j" fill="#fff">
                <use xlink:href="#i"/>
            </mask>
            <path d="M104.346 87.666c4.715-1.63 2.798-15.748-2.99-6.612-1.425 2.252-3.967 5.288-.93 6.358.97.471 2.866.914 3.92.254z" stroke="#FFF" stroke-width="1.5" stroke-linecap="round" mask="url(#j)"/>
        </g>
        <g transform="translate(0 35)">
            <mask id="l" fill="#fff">
                <use xlink:href="#k"/>
            </mask>
            <path d="M94.18 62.285c.135-.944 1.816-1.832 3.032-1.503 9.624 2.628 34.13-19.422 14.773-29.918-2.435-1.32-6.018-2.05-7.522-4.367-2.811-4.33 3.491-3.204 8.35-3.367 4.86-.164 8.168 3.915 9.494 6.317 2.196 3.984 3.258-1.47 1.855-3.85-2.661-4.509 1.157-4.232 5.197-5.891 4.039-5.184-12.129-7.11-16.945-7.287-8.24-.3-16.51-.062-24.733-.342-3.839-.133-7.444-.624-11.331-.565-2.09.03-4.242.076-6.304-.312-3.393-.643-.233-2.675-2.43-3.753-3.165-1.555-14.286 1.342-17.671 2.649-2.381.92-5.707 4.278-8.067 4.553-3.352.389-22.579-1.297-22.915-1.32-5.717-.422-18.284.498-19.258 8.02-.388 2.992 5.079 2.17 7.231.774 1.656-1.07 2.602-3.646 5.589-2.815 2.476.685 4.911 1.952 2.875 3.953-3.959 3.889-7.941 3.355-12.726 4.45-1.992.46-16.15 6.385-17.62 9.987-.898 2.202-.079 2.743 2.265 3.399 3.117.87 27.272-.786 31.256 2.107 2.735 1.988 11.493 2.749 6.023 7.486-3.558 3.088-10.18-3.759-14.323-.096-1.26 1.11-3.79-.426-5.03-.872-2.462-.886-14.047-4.132-17.737-2.115-4.648 2.54-9.725 10.795-10.406 15.923-.627 4.714 1.596 13.83 7.458 14.587 4.072.53 8.231-.57 12.324-.312 1.599.098 4.604 6.202 5.656 8.415 1.436 3.017 1.588 13.788 2.132 16.724.979 5.282 2.93 12.285 6.533 16.45 6.19 7.155 14.178-11.715 15.638-15.197.962-2.29 3.841-3.064 4.804-5.383 1.408-3.385-2.017-6.917-.61-10.396 2.115-5.232 8.575-4.694 10.664-9.995 2.498-6.343-9.355-1.765-11.557-5.066-3.622-5.434-11.08-16.271-5.114-17.453 3.92-.486 6.989 6.472 8.205 9.149.685 1.51.95 4.103 2.768 4.686 2.502.8 5.593-1.297 7.517-2.626 2.124-1.464 8.954-8.447 3.644-10.375-5.41-1.964-6.184 3.31-8.383-4.377-.7-2.31 22.173-2.462 24.378 12.956.428 2.981 2.364 5.568 3.506 8.303 1.37 3.295 5.432-9.4 7.586-11.213 6.871-5.786 10.354 3.215 12.073 8.4 1.71 5.132 1.286 13.27 7.512 15.938 1.858.796-.38-3.688-.567-3.986-2.087-3.391-1.24-12.742 1.29-9.216 1.932 2.695 3.757.707 4.264-2.814.497-3.435-4.998-5.916-4.642-8.444z" stroke="#FFF" stroke-width="1.5" stroke-linecap="round" mask="url(#l)"/>
        </g>
        <g transform="translate(0 35)">
            <mask id="o" fill="#fff">
                <use xlink:href="#n"/>
            </mask>
            <path d="M145.787 116.138c-.25-.626-1.931 1.047-2.518 1.714-.589.666-.167 3.148.838 3.148 1.01 0 2.437-2.958 1.68-4.862z" stroke="#FFF" stroke-width="1.5" stroke-linecap="round" mask="url(#o)"/>
        </g>
        <g transform="translate(0 35)">
            <mask id="q" fill="#fff">
                <use xlink:href="#p"/>
            </mask>
            <path d="M137.92 123.825c-1.4 1.605-5.31 3.714-3.408 4.118 1.905.4 4.711-1.41 6.314-2.414 1.604-1.003 2.707-2.308 1.907-3.21-.688-.77-3.407-.1-4.812 1.506z" stroke="#FFF" stroke-width="1.5" stroke-linecap="round" mask="url(#q)"/>
        </g>
        <g stroke="#FFF" stroke-width="1.5">
            <path d="M149 106.5c0 40.595-33.13 73.5-74 73.5-40.869 0-74-32.905-74-73.5C1 65.91 34.131 33 75 33c40.87 0 74 32.91 74 73.5zM8.92 25h29.92c3.397 0 6.16-2.778 6.16-6.193 0-3.238-2.485-5.904-5.64-6.171-1.158-4.153-4.97-7.098-9.32-7.098-.694 0-1.396.078-2.087.234A11.384 11.384 0 0 0 19.48 2c-4.625 0-8.783 2.817-10.55 7.077h-.01c-4.368 0-7.92 3.57-7.92 7.961C1 21.428 4.552 25 8.92 25M191.3 169h-44.199c-5.019 0-9.101-4.107-9.101-9.155 0-4.787 3.671-8.727 8.33-9.122 1.712-6.14 7.343-10.493 13.77-10.493 1.026 0 2.062.115 3.083.346A16.812 16.812 0 0 1 175.7 135c6.832 0 12.975 4.164 15.586 10.461h.015c6.452 0 11.699 5.278 11.699 11.77 0 6.49-5.247 11.769-11.7 11.769"/>
        </g>
        <g>
            <path d="M138.373 28.574c-1.46.154 2.351.588 6.171 3.09-3.232 16.63 6.173 23.694 11.756 25.46 5.584 1.766 15.87 1.325 17.926 2.061 2.056.735 5.29 5.74 5.73 8.622 3.233 2.734 5.878-.086 5.878-.086s3.627.588 5.29-1.325c2.498-.883 3.479-2.476 3.479-4.092 1.32-1.029 1.32-3.38.733-5.292 1.175-1.323.88-3.21-.293-5.316-9.098.123-12.534-1.444-17.169-4.09 11.887-2.204 18.49-10.612 18.49-10.612h-9.98c9.099-1.057 15.556-7.76 15.556-7.76s-2.494.146-10.272.735c14.087-6.32 12.314-14.404 12.314-14.404s0 3.257-8.375 6.28c7.548-5.041 9.435-14.806 7.863-19.845-6.606 10.394-23.274 6.614-33.023 12.599-9.749 5.985-9.481 16.38-9.481 16.38-2.093-6.131-6.283-10.94-11.236-10.647-4.953.295-5.92 3.827-7.242 5.74 0 0-1.323 2.207-4.115 2.502z" stroke="#FFF" stroke-width="1.5"/>
            <path d="M137.946 28.834s-17.358 1.943-24.48-7.471c-7.12-9.413-1.335-11.505-.742-11.356.595.15 5.49 1.046.743 11.356" stroke="#FFF" stroke-width="1.5"/>
            <path d="M121.96 32.073c1.475.645 3.975 1.345 6.336.618 2.362-.721 3.705-2.757 3.98-3.188.126-.2.189-.464.14-.723a.922.922 0 0 0-.385-.595c-.404-.27-2.359-1.52-4.775-1.1-2.42.423-4.454 2.207-5.576 3.476a.998.998 0 0 0-.23.844.9.9 0 0 0 .51.668zM128.765 17.635c-.42 1.575-.755 4.2.22 6.533.972 2.337 3.045 3.491 3.482 3.724a.892.892 0 0 0 .694.065.845.845 0 0 0 .507-.456c.202-.44 1.125-2.568.425-4.991-.7-2.422-2.623-4.312-3.95-5.322a.889.889 0 0 0-.82-.144.843.843 0 0 0-.558.591zM110.345 24.618c.943 1.097 2.696 2.681 4.901 3.208 2.202.53 4.095-.305 4.487-.486a.744.744 0 0 0 .398-.445.716.716 0 0 0-.077-.584c-.222-.366-1.316-2.097-3.445-2.86-2.13-.765-4.485-.409-5.897-.012a.736.736 0 0 0-.518.49.724.724 0 0 0 .15.69z" stroke="#FFF" stroke-width="1.5"/>
            <path d="M121.894 17.239c-1.036 1.043-2.48 2.93-2.766 5.125-.287 2.197.818 3.932 1.058 4.29.109.166.292.299.514.335a.801.801 0 0 0 .602-.144c.357-.257 2.038-1.52 2.578-3.672.54-2.154-.118-4.395-.703-5.716a.762.762 0 0 0-.577-.446.804.804 0 0 0-.706.228z" stroke="#FFF" stroke-width="1.5"/>
            <path d="m161.603 53-8.79-8.5s-1.71-.243-1.71-3.886c0-3.642 2.93-4.614 5.25-4.614s5.25 3.358 5.25 3.358S164.533 36 166.854 36c2.319 0 5.25.972 5.25 4.614 0 3.643-1.71 3.886-1.71 3.886l-8.79 8.5z" fill="#F8A908"/>
        </g>
    </g>
</svg>
