<svg height="210" width="1072" xmlns="http://www.w3.org/2000/svg"><g fill="none" fill-rule="evenodd"><path d="m93.636 133.846c0 5.934-4.286 10.744-9.568 10.744-5.287 0-9.57-4.81-9.57-10.744v-21.684c0-5.934 4.283-10.744 9.57-10.744 5.282 0 9.568 4.81 9.568 10.744z" fill="#bae659"/><path d="m94.829 135.662c0 5.579-4.494 10.102-10.036 10.102-5.544 0-10.037-4.523-10.037-10.102v-28.527c0-5.578 4.493-10.102 10.037-10.102 5.542 0 10.036 4.524 10.036 10.102zm-10.037-25.439v95.534m.082-82.098 5.231-6.187m-5.396 6.187-5.231-6.187m5.231 19.39-5.231-6.188m5.396 6.188 5.231-6.188" stroke="#fff" stroke-width="1.726"/><path d="m66.44 155.79c0 5.934-4.286 10.744-9.568 10.744-5.287 0-9.57-4.81-9.57-10.744v-21.684c0-5.934 4.283-10.744 9.57-10.744 5.282 0 9.567 4.81 9.567 10.744v21.684z" fill="#bae659"/><path d="m67.632 157.606c0 5.579-4.493 10.103-10.036 10.103-5.544 0-10.037-4.524-10.037-10.103v-28.526c0-5.579 4.493-10.103 10.037-10.103 5.543 0 10.036 4.524 10.036 10.103zm-10.037-25.439v74.627m.083-61.19 5.231-6.188m-5.396 6.188-5.231-6.188m5.231 19.39-5.231-6.188m5.396 6.188 5.231-6.188m236.535-71.565h-36.957c-4.195 0-7.609-3.448-7.609-7.684 0-4.018 3.069-7.325 6.965-7.656 1.431-5.153 6.14-8.806 11.513-8.806.857 0 1.724.096 2.578.29a14.033 14.033 0 0 1 10.465-4.68c5.713 0 10.85 3.494 13.032 8.78h.013c5.395 0 9.782 4.43 9.782 9.878 0 5.447-4.387 9.878-9.782 9.878m228.98 45.629h-19.664c-2.232 0-4.048-1.834-4.048-4.089 0-2.137 1.632-3.897 3.706-4.073.761-2.742 3.267-4.686 6.126-4.686.456 0 .916.051 1.371.154a7.466 7.466 0 0 1 5.569-2.49c3.039 0 5.773 1.86 6.933 4.672h.007c2.87 0 5.205 2.357 5.205 5.256s-2.334 5.256-5.205 5.256" stroke="#fff" stroke-width="1.726"/><path d="m373.757 34.236c0 5.792-4.654 10.487-10.395 10.487-5.742 0-10.396-4.695-10.396-10.487 0-5.791 4.654-10.486 10.396-10.486 5.741 0 10.395 4.695 10.395 10.486" fill="#f9a51a"/><path d="m363.362 2v13.205m0 38.062v13.205m31.956-32.236h-13.09m-37.732 0h-13.091m50.57-18.776-5.273 5.319m-26.681 26.914-5.272 5.319m0-37.552 5.272 5.319m26.681 26.914 5.272 5.319" stroke="#fff" stroke-linecap="round" stroke-linejoin="round" stroke-width="2.589"/><path d="m458.955 79.767h-35.253l-14.015-25.965h35.253z" fill="#49b649"/><path d="m460.146 78.279h-35.253l-14.015-25.966h35.253zm-42.429-25.966 14.169 25.965m-7.085-25.965 14.169 25.965m-7.084-25.965 14.168 25.965m-7.084-25.965 14.168 25.965m-38.825-19.939h34.662m-31.352 6.381h34.661m-30.872 6.381h34.662m-43.134-14.967v31.736m16.113-9.591v9.591m27.812-9.591v9.591m-49.043 119.192v-119.192h55v119.192m-55-119.192-18.192 18.348v100.843" stroke="#fff" stroke-linecap="round" stroke-linejoin="round" stroke-width="1.726"/><path d="m415.697 124.203h16.189v-27.225h-16.189zm24.063 0h16.19v-27.225h-16.19zm-24.063 36.332h16.189v-27.224h-16.189zm24.063 0h16.19v-27.224h-16.19zm-24.063 46.527v-38.154h40.252v38.154" stroke="#fff" stroke-linecap="round" stroke-linejoin="round" stroke-width="1.726"/><path d="m385.701 174.989c5.663-4.885 7.915-12.692 5.735-19.878l-11.984-39.518c-.54-1.781-3.04-1.781-3.58 0l-11.985 39.518c-2.18 7.186.073 14.993 5.736 19.878a12.29 12.29 0 0 0 16.078 0" fill="#007c6d"/><path d="m386.966 173.704c5.663-4.884 7.915-12.691 5.735-19.878l-11.984-39.518c-.54-1.781-3.04-1.781-3.58 0l-11.985 39.518c-2.18 7.187.073 14.994 5.736 19.878a12.29 12.29 0 0 0 16.078 0zm-8.039-42.363v75.721m0-39.98-6.035-8.201m6.035-5.845-4.446-6.042m4.446 20.088 6.035-8.201m-6.035-5.845 4.446-6.042" stroke="#fff" stroke-linecap="round" stroke-linejoin="round" stroke-width="1.726"/><path d="m970.44 49.281c-4.59 4.63-4.59 12.136 0 16.765a11.679 11.679 0 0 0 16.619 0c4.59-4.63 4.59-12.135 0-16.765a11.679 11.679 0 0 0 -16.62 0" fill="#afd139"/><path d="m978.36 50.918v-40.696c0-.882 1.274-.98 1.405-.108l4.112 27.308a16.049 16.049 0 0 1 -1.202 8.905m-9.59 14.695-35.775 18.083c-.781.395-1.438-.71-.725-1.22l22.36-15.942a15.692 15.692 0 0 1 8.431-2.905m17.61-.724 37.958 12.725c.83.279.519 1.53-.343 1.38l-26.986-4.676a15.727 15.727 0 0 1 -7.998-3.959m-11.874-9.153a4.314 4.314 0 0 0 0 6.065 4.225 4.225 0 0 0 6.012 0 4.314 4.314 0 0 0 0-6.065 4.225 4.225 0 0 0 -6.012 0zm2.616 7.637v145.678" stroke="#fff" stroke-linecap="round" stroke-linejoin="round" stroke-width="1.726"/><path d="m918.275 76.991c0 7.251 5.826 13.13 13.015 13.13 7.188 0 13.016-5.879 13.016-13.13 0-7.25-5.828-13.129-13.016-13.129-7.189 0-13.015 5.878-13.015 13.13" fill="#007c6d"/><path d="m931.29 69.907v-45.073c0-.977 1.411-1.084 1.556-.119l4.555 30.245a17.768 17.768 0 0 1 -1.33 9.861m-10.622 16.275-39.622 20.029c-.865.437-1.593-.787-.803-1.35l24.765-17.659a17.378 17.378 0 0 1 9.337-3.217m19.504-.801 42.04 14.094c.918.308.574 1.693-.38 1.527l-29.888-5.178a17.423 17.423 0 0 1 -8.858-4.385m-14.962-7.165c0 2.623 2.108 4.75 4.708 4.75s4.71-2.127 4.71-4.75-2.109-4.75-4.709-4.75-4.708 2.127-4.708 4.75zm4.708 7.257v124.203m.047-86.068c2.669 0 3.637-1.473 4.863-3.339 1.293-1.967 2.903-4.415 6.737-4.415s5.443 2.448 6.736 4.415c1.226 1.866 2.195 3.34 4.865 3.34 2.668 0 3.637-1.474 4.863-3.34 1.292-1.967 2.903-4.415 6.736-4.415 3.834 0 5.444 2.448 6.736 4.415 1.227 1.866 2.195 3.34 4.863 3.34 2.67 0 3.638-1.474 4.864-3.34 1.293-1.967 2.902-4.415 6.736-4.415s5.444 2.448 6.736 4.415c1.226 1.866 2.194 3.34 4.864 3.34" stroke="#fff" stroke-linecap="round" stroke-linejoin="round" stroke-width="1.726"/><path d="m908.429 130.138c2.668 0 3.636-1.473 4.862-3.339 1.293-1.967 2.904-4.415 6.737-4.415 3.834 0 5.443 2.448 6.736 4.415 1.226 1.866 2.195 3.34 4.865 3.34 2.668 0 3.637-1.474 4.863-3.34 1.292-1.967 2.902-4.415 6.736-4.415s5.444 2.448 6.737 4.415c1.226 1.866 2.194 3.34 4.862 3.34 2.67 0 3.638-1.474 4.863-3.34 1.294-1.967 2.903-4.415 6.738-4.415 3.833 0 5.443 2.448 6.735 4.415 1.226 1.866 2.195 3.34 4.864 3.34m-429.393 44.667v-5.171m0-14.678v-14.359c0-8.315 6.682-15.056 14.926-15.056h14.01c8.244 0 14.926 6.741 14.926 15.056v64.704h-43.862v-24.534" stroke="#fff" stroke-linecap="round" stroke-linejoin="round" stroke-width="1.726"/><path d="m568.952 176.362 10.199-18.013h-6.95l4.357-10.202h-8.401l-4.896 14.107h7.842z" fill="#f9a51a"/><g stroke="#fff" stroke-width="1.726"><path d="m568.952 176.362 10.199-18.013h-6.95l4.357-10.202h-8.401l-4.896 14.107h7.842zm48.394-4.842h-4.92c-4.06 0-7.352-3.32-7.352-7.416v-11.509c0-4.095-3.292-7.416-7.352-7.416h-5.226" stroke-linecap="round" stroke-linejoin="round"/><path d="m741.162 193.21a7.683 7.683 0 0 0 4.676-7.088c0-11.407-5.678-22.05-15.114-28.336l-27.807-18.518a68.588 68.588 0 0 0 -38.026-11.52h-39.895c-1.766 0-2.974 1.8-2.318 3.455a10.054 10.054 0 0 1 -.153 7.769 51.777 51.777 0 0 0 -4.433 20.969v6.366a15.62 15.62 0 0 1 -1.344 6.339 28.528 28.528 0 0 0 -2.456 11.584v1.892a7.685 7.685 0 0 0 4.271 6.902m27.819.778h66.716" stroke-linecap="round" stroke-linejoin="round"/><path d="m713.098 191.148c0 7.817 6.282 14.154 14.031 14.154 7.75 0 14.032-6.337 14.032-14.154 0-7.818-6.282-14.155-14.032-14.155s-14.031 6.337-14.031 14.155z" stroke-linecap="round" stroke-linejoin="round"/></g><path d="m715.729 156.941s-27.691-24.18-49.323-24.18c-28.162 0-23.467 24.18-23.467 24.18z" fill="#007c6d"/><path d="m618.566 191.148c0 7.817 6.282 14.154 14.032 14.154s14.031-6.337 14.031-14.154c0-7.818-6.282-14.155-14.031-14.155-7.75 0-14.032 6.337-14.032 14.155zm97.163-34.207h-72.79v-6.204c0-7.304 4.382-13.883 11.087-16.643a17.692 17.692 0 0 1 6.734-1.333" stroke="#fff" stroke-linecap="round" stroke-linejoin="round" stroke-width="1.726"/><path d="m630.662 164.608c0 2.117 1.701 3.834 3.8 3.834 2.1 0 3.8-1.717 3.8-3.834s-1.7-3.834-3.8-3.834c-2.099 0-3.8 1.717-3.8 3.834" fill="#f8a01b"/><path d="m630.662 164.608c0 2.117 1.701 3.834 3.8 3.834 2.1 0 3.8-1.717 3.8-3.834s-1.7-3.834-3.8-3.834c-2.099 0-3.8 1.717-3.8 3.834" fill="#f9a51a"/><path d="m132.266 92.098h11.953v-14.877h-11.953zm0 18.53h11.953v-14.877h-11.953zm0 18.532h11.953v-14.88h-11.953zm0 19.16h11.953v-14.877h-11.953zm0 18.532h11.953v-14.878h-11.953zm18.784-74.754h11.954v-14.877h-11.954zm0 18.53h11.954v-14.877h-11.954zm0 18.532h11.954v-14.88h-11.954zm0 19.16h11.954v-14.877h-11.954zm0 18.532h11.954v-14.878h-11.954zm18.782-74.754h11.952v-14.877h-11.952zm0 18.53h11.952v-14.877h-11.952zm0 18.532h11.952v-14.88h-11.952zm0 19.16h11.952v-14.877h-11.952zm0 18.532h11.952v-14.878h-11.952zm26.138 36.952v-126.585h19.077v126.325" stroke="#fff" stroke-linecap="round" stroke-linejoin="round" stroke-width="1.726"/><path d="m226.827 203.27v-133.237h-109.926v135.89m109.926-135.889-4.129-8.089m-87.408-8.047-18.389 16.136" stroke="#fff" stroke-linecap="round" stroke-linejoin="round" stroke-width="1.726"/><path d="m132.264 205.646v-35.142h49.521v33.549" stroke="#fff" stroke-linecap="round" stroke-linejoin="round" stroke-width="1.726"/><path d="m150.882 27.647h-24.842l-1.429 16.83h27.7zm-1.583 1.74 1.134 13.35h-23.944l1.134-13.35h21.677z" fill="#fff"/><path d="m126.04 33.34h24.649m-25.104 5.466h25.631m-18.58-10.838-.617 16.159m12.549-16.159.617 16.159m-6.635-16.167v16.176m44.037 3.612v16.578" stroke="#fff" stroke-width="1.726"/><path d="m195.088 31.436h-24.842l-1.429 16.83h27.7l-1.43-16.83zm-1.583 1.74 1.133 13.35h-23.942l1.133-13.35z" fill="#fff"/><path d="m195.123 37.189h-24.73m25.142 5.223h-25.733m18.558-10.477.603 15.805m-12.274-15.805-.603 15.805m6.489-15.814v15.823m-44.211-3.613v20.19m66.663-15.057v15.057" stroke="#fff" stroke-width="1.726"/><path d="m217.118 43.696 1.556 16.747h-26.924l1.75-16.747z" fill="#002a5e"/><path d="m217.688 43.488h-24.842l-1.43 16.83h27.7zm-1.584 1.74 1.134 13.35h-23.942l1.133-13.35z" fill="#fff"/><path d="m217.647 49.269-24.93.017m25.9 5.15-26.485.018m18.767-10.75.298 16.332m-11.843-16.332-.896 16.332m6.718-16.34-.298 16.349m-46.087-.481v4.762" stroke="#fff" stroke-width="1.726"/><path d="m147.094 43.06-1.563 16.503h27.06l-1.758-16.503z" fill="#14e6f0"/><path d="m144.892 59.56h27.7l-1.43-16.83h-24.841z" stroke="#fff" stroke-linecap="round" stroke-linejoin="round" stroke-width="1.726"/><path d="m146.369 48.511h24.942m-25.638 5.167h26.224m-18.829-10.715-.696 16.592m12.241-16.592.499 16.592m-6.322-16.6-.098 16.609" stroke="#fff" stroke-width="1.726"/><path d="m854.52 135.632c0 7.645-6.135 13.843-13.7 13.843-7.567 0-13.7-6.198-13.7-13.843v-18.386c0-7.645 6.133-13.844 13.7-13.844 7.565 0 13.7 6.199 13.7 13.844zm-47.292-23.92c0 7.645-6.134 13.843-13.7 13.843s-13.699-6.198-13.699-13.843v-18.386c0-7.645 6.133-13.844 13.7-13.844 7.565 0 13.7 6.199 13.7 13.844v18.386z" fill="#afd139"/><path d="m810.056 110.366c0 7.645-6.134 13.843-13.7 13.843s-13.699-6.198-13.699-13.843v-18.386c0-7.645 6.133-13.844 13.7-13.844 7.565 0 13.7 6.199 13.7 13.844v18.386zm-13.819-9.193v103.085m60.946-69.51c0 7.645-6.135 13.844-13.7 13.844-7.566 0-13.7-6.199-13.7-13.844v-18.385c0-7.645 6.134-13.844 13.7-13.844 7.565 0 13.7 6.199 13.7 13.844zm-13.819-9.192v82.621" stroke="#fff" stroke-linecap="round" stroke-linejoin="round" stroke-width="1.726"/><path d="m1.431 208.565h1069.138" stroke="#fff" stroke-linecap="square" stroke-width="1.726"/></g></svg>