<svg width="120" height="137" xmlns="http://www.w3.org/2000/svg">
    <g transform="translate(1 1)" fill="none" fill-rule="evenodd">
        <path d="M93.157 48.697H77.53L57.577 59.955a.159.159 0 0 1-.221 0 .151.151 0 0 1 0-.217l6.487-11.041c-13.701 0-24.816-10.883-24.843-24.324C39 10.912 50.122 0 63.843 0h29.314C106.877 0 118 10.912 118 24.373c-.027 13.441-11.142 24.324-24.843 24.324z" stroke="#00796D" stroke-width="2" fill="#FFF" fill-rule="nonzero"/>
        <path d="M104.967 125.5s13.996 4.746 11.799-15.06c-2.198-19.808-28.023-16.164-30.442-17.016-2.418-.852-2.876-3.35-10.619-11.167S52.447 73 52.447 73H10.073c-6.165 0-3.643 4.026-3.643 4.026l3.643 6.289S0 89.192 0 95.364v21.203c0 4.408 7.551 8.037 9.233 9.433" stroke="#00796D" stroke-width="2" fill="#BAE659" fill-rule="nonzero"/>
        <path d="M101.443 14H56.967c-1.965 0-3.557 1.558-3.557 3.48v.936H50v9.168h3.41v.96C53.423 30.457 55.012 32 56.967 32h44.476c1.955 0 3.544-1.543 3.557-3.456V17.48c0-.923-.375-1.808-1.042-2.46a3.597 3.597 0 0 0-2.515-1.02z" stroke="#00796D" stroke-width="2"/>
        <path fill="#BAE659" fill-rule="nonzero" d="M58 18h41v10H58z"/>
        <path d="M26 77s5.06 16.532 15.18 15.987c10.122-.545 37.82 0 37.82 0" stroke="#00796D" stroke-width="2"/>
        <circle stroke="#00796D" stroke-width="2" fill="#FFF" fill-rule="nonzero" cx="91.5" cy="121.5" r="13.5"/>
        <circle stroke="#00796D" stroke-width="2" fill="#FFF" fill-rule="nonzero" cx="22.5" cy="121.5" r="13.5"/>
        <path stroke="#00796D" stroke-width="2" d="M36 125h41"/>
    </g>
</svg>
