<?xml version="1.0" encoding="UTF-8" standalone="no"?>
<svg
   xmlns:dc="http://purl.org/dc/elements/1.1/"
   xmlns:cc="http://creativecommons.org/ns#"
   xmlns:rdf="http://www.w3.org/1999/02/22-rdf-syntax-ns#"
   xmlns:svg="http://www.w3.org/2000/svg"
   xmlns="http://www.w3.org/2000/svg"
   xmlns:sodipodi="http://sodipodi.sourceforge.net/DTD/sodipodi-0.dtd"
   xmlns:inkscape="http://www.inkscape.org/namespaces/inkscape"
   width="948"
   height="313"
   version="1.1"
   id="svg54"
   sodipodi:docname="illustrations-kc-score-bgd-image-33.svg"
   inkscape:version="0.92.4 (5da689c313, 2019-01-14)">
  <metadata
     id="metadata60">
    <rdf:RDF>
      <cc:Work
         rdf:about="">
        <dc:format>image/svg+xml</dc:format>
        <dc:type
           rdf:resource="http://purl.org/dc/dcmitype/StillImage" />
        <dc:title></dc:title>
      </cc:Work>
    </rdf:RDF>
  </metadata>
  <defs
     id="defs58" />
  <sodipodi:namedview
     pagecolor="#ffffff"
     bordercolor="#666666"
     borderopacity="1"
     objecttolerance="10"
     gridtolerance="10"
     guidetolerance="10"
     inkscape:pageopacity="0"
     inkscape:pageshadow="2"
     inkscape:window-width="1680"
     inkscape:window-height="987"
     id="namedview56"
     showgrid="false"
     inkscape:zoom="1.0263491"
     inkscape:cx="390.96308"
     inkscape:cy="102.09256"
     inkscape:window-x="-8"
     inkscape:window-y="-8"
     inkscape:window-maximized="1"
     inkscape:current-layer="svg54" />
  <g
     fill="none"
     fill-rule="evenodd"
     id="g52">
    <path
       stroke="#00796D"
       stroke-width="2"
       d="M0 311.5h948"
       id="path2" />
    <path
       d="M726.324 209.717c1.187 0 2.149-.961 2.149-2.146a2.147 2.147 0 0 0-2.149-2.146c-1.186 0-2.148.96-2.148 2.146 0 1.185.962 2.146 2.148 2.146M726.324 240.617c1.187 0 2.149-.961 2.149-2.146a2.147 2.147 0 0 0-2.149-2.146c-1.186 0-2.148.96-2.148 2.146 0 1.185.962 2.146 2.148 2.146M726.324 225.167a2.144 2.144 0 0 0 1.514-3.668 2.15 2.15 0 0 0-3.032 3.048c.403.4.95.623 1.518.62"
       fill="#00796D"
       fill-rule="nonzero"
       id="path4" />
    <path
       stroke="#00796D"
       stroke-width="2"
       d="m721.597 138.475-6.875 171.667M731.051 138.475 739.645 311M765.449 138.854c-12.273-6.992-22.548-13.728-29.458-14.97a10.47 10.47 0 0 1-.177 9.555 10.769 10.769 0 0 1-3.044 3.504c5.476 4.443 14.866 9.19 25.077 15.003a104.42 104.42 0 0 0 36.802 12.279 103.42 103.42 0 0 0-29.2-25.37zM721.68 118.558a10.594 10.594 0 0 1 10.041 0l.319.175c3.363-5.754 2.327-19.074 2.2-34.587a101.487 101.487 0 0 0-7.875-37.513 101.482 101.482 0 0 0-7.3 37.64c.064 15.275-.765 28.484 2.614 34.285zM716.657 123.883c-6.86 1.246-17.184 7.982-29.457 15.007a103.498 103.498 0 0 0-29.2 25.335 104.25 104.25 0 0 0 36.802-12.308c10.21-5.827 19.6-10.585 25.077-15.039-4.04-3.031-5.384-8.453-3.222-12.995z"
       id="path6" />
    <path
       d="M735.824 132.755c-2.77 5.239-9.269 7.243-14.514 4.477-5.246-2.767-7.253-9.256-4.484-14.495 2.77-5.238 9.268-7.243 14.514-4.478a10.73 10.73 0 0 1 5.249 6.321c.84 2.719.565 5.66-.765 8.175"
       stroke="#00796D"
       stroke-width="2"
       id="path8" />
    <path
       d="M853.505 209.717a2.144 2.144 0 0 0 1.539-3.658 2.15 2.15 0 0 0-3.673 1.512c0 1.18.953 2.138 2.134 2.146M853.505 240.617a2.144 2.144 0 0 0 1.539-3.658 2.15 2.15 0 0 0-3.673 1.512c0 1.18.953 2.138 2.134 2.146M853.505 225.167a2.144 2.144 0 0 0 1.533-3.663 2.15 2.15 0 0 0-3.667 1.531c0 1.177.955 2.132 2.134 2.132"
       fill="#00796D"
       fill-rule="nonzero"
       id="path10" />
    <path
       stroke="#00796D"
       stroke-width="2"
       d="m848.792 68.092-11.172 242.05M858.246 68.092l10.313 242.05M888.488 37.02c-13.522 4.074-25.52 6.92-31.101 11.058a10.643 10.643 0 0 1 6.833 6.758c.512 1.5.681 3.097.497 4.672 6.993-.905 16.89-4.446 28.134-7.84A102.872 102.872 0 0 0 927 33.365a102.44 102.44 0 0 0-38.512 3.653zM843.289 55.217c.9-3.46 3.483-6.234 6.87-7.38l.352-.113c-1.905-6.404-12.363-14.873-23.813-25.52A102.623 102.623 0 0 0 793.79 2a102.464 102.464 0 0 0 22.532 31.363c11.322 10.519 20.418 20.253 26.968 21.854z"
       id="path12" />
    <path
       d="M843.683 62.083c-3.88 5.81-6.05 17.961-9.404 31.7a100.973 100.973 0 0 0-1.463 38.684c7.736-10.605 13.348-22.543 16.539-35.184 2.794-11.428 5.82-21.508 6.313-28.555-5.102.832-10.104-1.94-11.985-6.645z"
       stroke="#00796D"
       stroke-width="2"
       fill="#FFF"
       fill-rule="nonzero"
       id="path14" />
    <path
       d="M863.682 54.745a10.721 10.721 0 0 1-3.065 11.529 10.753 10.753 0 0 1-11.838 1.575 10.728 10.728 0 0 1-5.98-10.326 10.732 10.732 0 0 1 7.27-9.464c5.606-1.89 11.688 1.097 13.613 6.686"
       stroke="#00796D"
       stroke-width="2"
       id="path16" />
    <g
       id="g22">
      <path
         d="M804.26 244.064c.165 3.066-1.36 5.973-3.962 7.556a8.128 8.128 0 0 1-8.46 0c-2.602-1.583-4.127-4.49-3.962-7.556v-11.608c-.165-3.067 1.36-5.974 3.962-7.557a8.128 8.128 0 0 1 8.46 0c2.603 1.583 4.127 4.49 3.963 7.557v11.608z"
         fill="#63C532"
         fill-rule="nonzero"
         id="path18" />
      <path
         d="M806 244.156c0 5.25-4.253 9.507-9.5 9.507s-9.5-4.256-9.5-9.507v-12.648c0-5.251 4.253-9.508 9.5-9.508s9.5 4.257 9.5 9.508v12.648zM796.932 237.404V311"
         stroke="#00796D"
         stroke-width="2"
         id="path20" />
    </g>
    <g
       id="g28">
      <path
         d="M827.3 281.347c0 4.16-3.425 7.532-7.65 7.532-4.225 0-7.65-3.372-7.65-7.532v-10.28c0-4.16 3.425-7.533 7.65-7.533 4.225 0 7.65 3.373 7.65 7.533v10.28z"
         fill="#63C532"
         fill-rule="nonzero"
         id="path24" />
      <path
         d="M828.945 281.295c.37 3.182-1.154 6.29-3.92 7.995a8.646 8.646 0 0 1-9.05 0c-2.766-1.705-4.29-4.813-3.92-7.995v-11.02c-.37-3.183 1.154-6.291 3.92-7.996a8.646 8.646 0 0 1 9.05 0c2.766 1.705 4.29 4.813 3.92 7.995v11.02zM820.925 275.362V310"
         stroke="#00796D"
         stroke-width="2"
         id="path26" />
    </g>
    <g
       id="g34">
      <path
         d="M81.415 232.276c.189 3.566-1.563 6.948-4.554 8.79a9.245 9.245 0 0 1-9.722 0c-2.99-1.842-4.743-5.224-4.554-8.79v-13.502c-.189-3.567 1.563-6.948 4.554-8.79a9.245 9.245 0 0 1 9.722 0c2.99 1.842 4.743 5.223 4.554 8.79v13.502zM36 275.94c0 4.986-4.03 9.027-9 9.027s-9-4.041-9-9.026v-12.32c0-4.985 4.03-9.026 9-9.026s9 4.041 9 9.026v12.32z"
         fill="#63C532"
         fill-rule="nonzero"
         id="path30" />
      <path
         d="M84 232.11c0 6.188-4.989 11.204-11.143 11.204-6.154 0-11.143-5.016-11.143-11.204v-14.906c0-6.188 4.99-11.204 11.143-11.204C79.011 206 84 211.016 84 217.204v14.906zM73.286 224.223V311M37.65 274.948a9.754 9.754 0 0 1-4.545 9.386 9.923 9.923 0 0 1-10.496 0 9.754 9.754 0 0 1-4.545-9.386V262.01a9.754 9.754 0 0 1 4.545-9.386 9.923 9.923 0 0 1 10.496 0 9.754 9.754 0 0 1 4.546 9.386v12.937zM28.714 268.479v41.653"
         stroke="#00796D"
         stroke-width="2"
         id="path32" />
    </g>
    <g
       stroke="#00796D"
       stroke-width="2"
       id="g42">
      <path
         d="M528.677 174.077v11.687m93.323 6.83-15.468-41.573H502.488L487 192.593h135zM540.194 311h-22.755v-39.542h22.814l-.06 39.542zm50.176-16.784h-22.755v-22.738h22.814l-.06 22.738zm0-33.848h-22.755v-22.757h22.814l-.06 22.757zm-50.176 0h-22.755v-22.757h22.814l-.06 22.757zm0-33.847h-22.755v-22.778h22.814l-.06 22.778zm50.513 0h-22.755v-22.778h22.815l-.06 22.778zm23.132-34.525V311H495.3V191.996"
         id="path36" />
      <path
         d="M580.002 174.434v11.851m-44.2-39.852.985 26.023m-15.961-26.023-.985 26.023m-12.12-8.762h40.713m-40.042-8.6h39.096M507.623 145l-2.68 29.434h46.466l-3.035-29.353-40.751-.081zM599.687 145l2.661 28.383h-46.14L559.204 145z"
         fill="#FFF"
         fill-rule="nonzero"
         id="path38" />
      <path
         d="m571.686 146.383-.978 25.11m15.869-25.11.959 25.11m12.034-8.454h-40.426m39.76-8.299h-38.801m39.584-9.74 2.661 28.383h-46.14l2.995-28.325 40.484-.058z"
         id="path40" />
    </g>
    <g
       stroke="#00796D"
       stroke-width="2"
       id="g46">
      <path
         d="M188.921 268.411c-.239 7.046-6.195 12.637-13.46 12.637-7.266 0-13.222-5.591-13.461-12.637v-33.774c.239-7.046 6.195-12.637 13.46-12.637 7.266 0 13.222 5.591 13.461 12.637v33.774zM175.461 236.548V311M175.895 253.663l6.947-8.557M175.895 269.923l6.947-8.558M175.895 253.663l-6.948-8.557M175.895 269.923l-6.948-8.558M225.395 268.411c-.24 7.046-6.195 12.637-13.46 12.637-7.266 0-13.222-5.591-13.461-12.637v-33.774c.239-7.046 6.195-12.637 13.46-12.637 7.266 0 13.222 5.591 13.46 12.637v33.774zM211.934 236.548V311M211.5 253.663l6.947-8.557M211.5 269.923l6.947-8.558M212.368 253.663l-6.947-8.557M212.368 269.923l-6.947-8.558M261 269.515c0 7.315-6.026 13.245-13.46 13.245-7.435 0-13.461-5.93-13.461-13.245v-34.27c0-7.315 6.026-13.245 13.46-13.245 7.435 0 13.461 5.93 13.461 13.244v34.271zM248.408 236.548V311M247.974 253.663l6.947-8.557M247.105 253.663l-6.947-8.557M247.105 269.923l-6.947-8.558M247.974 269.923l6.947-8.558"
         id="path44" />
    </g>
    <g
       stroke="#00796D"
       stroke-width="2"
       id="g50">
      <path
         d="M640.758 268.849V311M640.758 276.591l4.263-5.161M640.758 276.591l-4.263-5.161M659.516 256.181c0-3.585-2.926-6.492-6.535-6.492h-.443c.254-.68.388-1.398.396-2.122.002-3.37-2.601-6.175-5.981-6.446a6.45 6.45 0 0 0-1.83-7.854 6.552 6.552 0 0 0-8.113 0 6.45 6.45 0 0 0-1.83 7.854c-3.467.168-6.19 3.012-6.186 6.461.009.74.143 1.474.395 2.17a7.467 7.467 0 0 0-.854-.095c-3.61 0-6.535 2.907-6.535 6.493 0 3.586 2.926 6.493 6.535 6.493h.316c-1.188 3.092.162 6.577 3.13 8.08 2.97 1.503 6.6.54 8.42-2.232a6.54 6.54 0 0 0 7.319 2.639 6.482 6.482 0 0 0 4.644-6.208 6.518 6.518 0 0 0-.459-2.358c.355.069.715.105 1.076.11 3.61 0 6.535-2.907 6.535-6.493zM683.389 268.849V311M684.242 276.591l4.263-5.161M683.389 276.591l-4.263-5.161M703 255.98a6.597 6.597 0 0 0-1.904-4.657 6.493 6.493 0 0 0-4.615-1.93h-.443c.254-.69.388-1.418.396-2.153-.005-3.415-2.605-6.257-5.981-6.539.413-.871.63-1.824.632-2.79a6.6 6.6 0 0 0-3.167-5.974 6.49 6.49 0 0 0-6.72 0 6.6 6.6 0 0 0-3.166 5.973 6.55 6.55 0 0 0 .633 2.775c-3.468.17-6.191 3.056-6.187 6.555.009.75.143 1.495.395 2.2a7.004 7.004 0 0 0-.854-.095c-3.61 0-6.535 2.949-6.535 6.587 0 3.637 2.926 6.586 6.535 6.586h.332c-1.15 3.125.202 6.624 3.149 8.14a6.489 6.489 0 0 0 8.386-2.207 6.494 6.494 0 0 0 7.331 2.702c2.768-.837 4.66-3.41 4.647-6.323a6.423 6.423 0 0 0-.475-2.392c.36.07.726.107 1.092.112 3.6 0 6.519-2.942 6.519-6.57z"
         id="path48" />
    </g>
  </g>
  <g
     id="g883"
     transform="translate(236.848,176.05)"
     style="fill:none;fill-rule:evenodd">
    <path
       id="path867"
       d="M 93.157,48.697 H 77.53 L 57.577,59.955 a 0.159,0.159 0 0 1 -0.221,0 0.151,0.151 0 0 1 0,-0.217 L 63.843,48.697 C 50.142,48.697 39.027,37.814 39,24.373 39,10.912 50.122,0 63.843,0 H 93.157 C 106.877,0 118,10.912 118,24.373 117.973,37.814 106.858,48.697 93.157,48.697 Z"
       inkscape:connector-curvature="0"
       style="fill:#ffffff;fill-rule:nonzero;stroke:#00796d;stroke-width:2" />
    <path
       id="path869"
       d="m 104.967,125.5 c 0,0 13.996,4.746 11.799,-15.06 C 114.568,90.632 88.743,94.276 86.324,93.424 83.906,92.572 83.448,90.074 75.705,82.257 67.962,74.44 52.447,73 52.447,73 H 10.073 C 3.908,73 6.43,77.026 6.43,77.026 l 3.643,6.289 C 10.073,83.315 0,89.192 0,95.364 v 21.203 c 0,4.408 7.551,8.037 9.233,9.433"
       inkscape:connector-curvature="0"
       style="fill:#bae659;fill-rule:nonzero;stroke:#00796d;stroke-width:2" />
    <path
       id="path871"
       d="M 101.443,14 H 56.967 c -1.965,0 -3.557,1.558 -3.557,3.48 v 0.936 H 50 v 9.168 h 3.41 v 0.96 C 53.423,30.457 55.012,32 56.967,32 h 44.476 c 1.955,0 3.544,-1.543 3.557,-3.456 V 17.48 c 0,-0.923 -0.375,-1.808 -1.042,-2.46 A 3.597,3.597 0 0 0 101.443,14 Z"
       inkscape:connector-curvature="0"
       style="stroke:#00796d;stroke-width:2" />
    <path
       id="path873"
       d="M 85,18 H 99 V 28 H 85 Z"
       inkscape:connector-curvature="0"
       style="fill:#b71962;fill-rule:nonzero" />
    <path
       id="path875"
       d="m 26,77 c 0,0 5.06,16.532 15.18,15.987 10.122,-0.545 37.82,0 37.82,0"
       inkscape:connector-curvature="0"
       style="stroke:#00796d;stroke-width:2" />
    <circle
       id="circle877"
       r="13.5"
       cy="121.5"
       cx="91.5"
       style="fill:#ffffff;fill-rule:nonzero;stroke:#00796d;stroke-width:2" />
    <circle
       id="circle879"
       r="13.5"
       cy="121.5"
       cx="22.5"
       style="fill:#ffffff;fill-rule:nonzero;stroke:#00796d;stroke-width:2" />
    <path
       id="path881"
       d="M 36,125 H 77"
       inkscape:connector-curvature="0"
       style="stroke:#00796d;stroke-width:2" />
  </g>
</svg>
