<svg width="210" height="180" xmlns="http://www.w3.org/2000/svg" xmlns:xlink="http://www.w3.org/1999/xlink">
    <defs>
        <path id="a" d="M0 180h210V.994H0z"/>
    </defs>
    <g fill="none" fill-rule="evenodd">
        <path d="M15 138.06h21.12s.321.643 4.292-2.45c3.971-3.095 11.061-12.66 17.302-13.784 6.24-1.125 60.98 0 60.98 0s9.36-1.125 9.643 3.657c.284 4.782-1.702 7.032-5.956 8.719-4.254 1.689-33.185 15.19-36.02 15.472-2.837.281-8.793-1.97-8.793-6.752s6.523-4.22 8.225-3.937c1.702.281 33.52 11.251 42.57 11.814 9.05.562 29.188-7.313 36.279-10.97 7.09-3.657 16.45-9.845 21.839-9.845 5.39 0 10.495 1.687 9.36 7.875-1.135 6.19-42.828 34.881-79.984 38.82-37.155 3.938-66.936-1.97-77.147-3.376C28.5 171.896 15 173.02 15 173.02" stroke="#00796D" stroke-width="1.5"/>
        <path d="M126 122.812s16.488-8.767 19.342-9.191c2.852-.423 4.993-.358 7.56.564 1.804.649 3.71 5.083 3.71 5.083s4.81-3.288 8.559-2.823c4.564.564 6.42 2.843 7.845 5.162 2.568 0 4.108-2.454 7.847-1.21 3.635 1.21 7.271 2.367 7.133 9.88M172.5 136.243V54.696" stroke="#00796D" stroke-width="1.5"/>
        <path d="M177 50.221c0 2.472-2.014 4.475-4.5 4.475s-4.5-2.003-4.5-4.475c0-2.472 2.014-4.475 4.5-4.475s4.5 2.003 4.5 4.475" fill="#F8A908"/>
        <path d="M177 49.724s28.599 17.9 31 17.9c-2.542-3.688-18.784-17.588-24.717-16.737M172 45.746s-.169-33.767-1.373-35.801c-1.644 4.118-4.505 25.282-.857 29.856M168 50.718s-32.364 8.172-34 9.837c4.385.639 25.452-1.571 28.882-6.238M36 24.365c0 6.865-5.596 12.43-12.5 12.43S11 31.23 11 24.366c0-6.866 5.596-12.431 12.5-12.431S36 17.499 36 24.364z" stroke="#00796D" stroke-width="1.5"/>
        <path d="M23.5 33.812c-5.248 0-9.5-4.23-9.5-9.447 0-5.218 4.252-9.448 9.5-9.448 5.246 0 9.5 4.23 9.5 9.448 0 5.217-4.254 9.447-9.5 9.447z" fill="#F8A908"/>
        <path stroke="#00796D" stroke-width="1.5" d="M23.5 6.961V0M23.5 48.729v-6.961M41 24.365h7M0 24.365h7M36 11.934l5-4.973M7 41.768l5-4.972M30 7.956l3-5.967M14 45.746l3-5.967M12 11.934 7 6.961M41 41.768l-5-4.972M17 8.95l-3-5.967M34 45.746l-3-5.967M8 17.901l-6-2.984M46 33.812l-6-2.983M40 17.901l6-1.989M2 32.818l6-1.989M94.7 27.845H70.9c-2.702 0-4.9-2.162-4.9-4.82 0-2.52 1.976-4.595 4.485-4.802.922-3.232 3.954-5.524 7.415-5.524.552 0 1.11.06 1.66.182a9.145 9.145 0 0 1 6.739-2.936c3.68 0 6.988 2.192 8.393 5.508h.008c3.475 0 6.3 2.78 6.3 6.197 0 3.416-2.825 6.195-6.3 6.195M139.49 37.79c1.387 0 2.51-1.068 2.51-2.384 0-1.317-1.123-2.385-2.51-2.385-.085 0-.166.016-.25.024-.19-2.348-2.233-4.205-4.754-4.205-2.23 0-4.087 1.453-4.622 3.412a3.12 3.12 0 0 0-.876-.139c-1.65 0-2.988 1.272-2.988 2.84 0 1.567 1.337 2.837 2.988 2.837h10.502zM44.735 80.865c.137-.846.46-1.91 1.19-2.902 1.368-1.866 3.58-2.886 5.007-3.338a.763.763 0 0 1 .725.132.773.773 0 0 1 .267.687c-.169 1.486-.747 3.853-2.318 5.553-1.569 1.704-3.66 2.57-4.099 2.636-.201.028-.58.024-.745-.124-1.051-.94-1.121-2.02-2.35-4.022-1.455-2.378-3.989-3.638-5.414-4.09a.762.762 0 0 0-.725.132.77.77 0 0 0-.267.686c.168 1.488 1.278 4.556 2.85 6.256 1.566 1.704 3.283 1.959 4.096 2.11.814.15 1.323.094 1.323 1.016l-.004 9.082c-.003 5.378 4.353 9.74 9.729 9.74M58.773 64.816c.138-.828.462-1.868 1.195-2.839 1.375-1.825 3.597-2.823 5.03-3.264a.782.782 0 0 1 .728.128.745.745 0 0 1 .268.672c-.17 1.454-.75 3.769-2.328 5.432-1.576 1.667-3.677 2.514-4.117 2.578-.202.028-.582.023-.748-.121-1.057-.92-1.126-1.975-2.36-3.934-1.463-2.326-4.007-3.559-5.44-4a.782.782 0 0 0-.727.128.747.747 0 0 0-.268.672c.168 1.455 1.283 4.455 2.862 6.119 1.574 1.667 3.298 1.915 4.115 2.063.818.149 1.328.092 1.328.994l-.004 16.08M101.712 57.68H85.531c-.711 0-1.288.6-1.288 1.34v.37H83v3.543h1.243v.368c0 .74.577 1.34 1.288 1.34h16.181c.712 0 1.288-.6 1.288-1.34V59.02c0-.74-.576-1.34-1.288-1.34z"/>
        <mask id="b" fill="#fff">
            <use xlink:href="#a"/>
        </mask>
        <path fill="#BAE659" mask="url(#b)" d="M93 62.652h8v-2.983h-8z"/>
        <path d="M98.877 71.284h-5.734l-7.326 4.287c-.053.032-.111-.028-.081-.082l2.387-4.205c-5.039 0-9.123-4.159-9.123-9.289s4.084-9.288 9.123-9.288h10.754c5.039 0 9.123 4.159 9.123 9.288 0 5.13-4.084 9.289-9.123 9.289zM71 85.525s3.149 10.275 9.448 9.936c6.297-.338 23.552.009 23.552.009" stroke="#00796D" stroke-width="1.5" mask="url(#b)"/>
        <path d="M119.614 115.05s8.615 2.938 7.237-9.328c-1.38-12.264-17.231-10.017-18.73-10.528-1.501-.51-1.775-2.081-6.537-6.918-4.761-4.837-14.31-5.734-14.31-5.734s-22.281.034-26.072 0c-3.79-.034-2.239 2.495-2.239 2.495l2.24 3.894S55 92.594 55 96.395v13.128c0 2.764 4.652 4.973 5.685 5.836" stroke="#00796D" stroke-width="1.5" mask="url(#b)"/>
        <path d="M119 112.873c0-4.668-3.805-8.453-8.5-8.453s-8.5 3.785-8.5 8.453c0 4.668 3.805 8.453 8.5 8.453s8.5-3.785 8.5-8.453zM77 112.873c0-4.668-3.805-8.453-8.5-8.453s-8.5 3.785-8.5 8.453c0 4.668 3.805 8.453 8.5 8.453s8.5-3.785 8.5-8.453zM77 114.862h25" stroke="#00796D" stroke-width="1.5" mask="url(#b)"/>
        <path d="M164 104.695c0 3.144-2.687 5.692-6 5.692-3.314 0-6-2.548-6-5.692V93.206c0-3.144 2.686-5.692 6-5.692 3.313 0 6 2.548 6 5.692v11.489z" fill="#BAE659" mask="url(#b)"/>
        <path d="M152 93.163c0 3.47-2.911 6.285-6.5 6.285-3.59 0-6.5-2.814-6.5-6.285V76.892c0-3.47 2.91-6.284 6.5-6.284 3.589 0 6.5 2.814 6.5 6.284v16.271zM145.5 76.575v36.795M146 85.525l3-3.978M146 93.481l3-3.978M145 85.525l-3-3.978M145 93.481l-3-3.978M165 103.952c0 3.554-2.911 6.435-6.5 6.435-3.59 0-6.5-2.881-6.5-6.435V90.965c0-3.553 2.91-6.435 6.5-6.435 3.589 0 6.5 2.882 6.5 6.435v12.987zM158.5 93.481v23.867M159 107.403l3-3.978M158 107.403l-3-3.978M159 99.448l3-3.978M158 99.448l-3-3.978" stroke="#00796D" stroke-width="1.5" mask="url(#b)"/>
    </g>
</svg>
