<svg width="216" height="181" xmlns="http://www.w3.org/2000/svg">
    <g fill="none" fill-rule="evenodd">
        <path stroke="#00796D" stroke-width="2" stroke-linecap="round" stroke-linejoin="round" stroke-dasharray="7,8" d="M61.823 117.692 39.797 81.099M81.846 99.89l-17.02 18.791M109.878 133.516 85.85 100.879"/>
        <path stroke="#00796D" stroke-width="2" stroke-linecap="round" d="m120.891 122.637 56.065 52.418M112.882 132.527l5.006-8.901M181.414 177.896c.45-1.997-1.31-3.738-3.329-3.293a2.727 2.727 0 0 0-2.057 2.041c-.443 1.994 1.312 3.728 3.325 3.287a2.728 2.728 0 0 0 2.06-2.035zM121.682 121.11c0-1.51-1.237-2.733-2.763-2.733-1.526 0-2.763 1.223-2.763 2.733s1.237 2.732 2.763 2.732c1.526 0 2.763-1.222 2.763-2.732zM113.854 135.468c0-1.509-1.237-2.733-2.763-2.733-1.526 0-2.763 1.224-2.763 2.733 0 1.51 1.237 2.733 2.763 2.733 1.526 0 2.763-1.222 2.763-2.733zM86.586 97.359c0-1.509-1.238-2.734-2.764-2.734-1.525 0-2.763 1.225-2.763 2.734 0 1.51 1.238 2.733 2.763 2.733 1.526 0 2.764-1.223 2.764-2.733zM40.843 78.837c0-1.509-1.237-2.732-2.763-2.732-1.526 0-2.763 1.223-2.763 2.732 0 1.512 1.237 2.734 2.763 2.734 1.526 0 2.763-1.222 2.763-2.734zM65.178 120.331c0-1.509-1.236-2.733-2.762-2.733s-2.763 1.224-2.763 2.733c0 1.51 1.237 2.734 2.763 2.734 1.526 0 2.762-1.223 2.762-2.734z"/>
        <path d="M75.322 22.913c0 12.654 10.37 22.912 23.161 22.912 12.794 0 23.164-10.258 23.164-22.912C121.647 10.258 111.277 0 98.483 0 85.691 0 75.322 10.258 75.322 22.913" fill="#F8A908"/>
        <path d="M123.717 53.112c-4.21.01-11.002.891-16.245 4.71-5.25 3.817-6.857 9.496-7.168 10.687-.145.554-.079 1.186.267 1.7.337.512.886.825 1.46.916 1.23.199 7.138 1.036 12.78-2.183 5.64-3.22 9.179-9.02 10.886-12.83a2.098 2.098 0 0 0-.146-2.045 2.173 2.173 0 0 0-1.834-.955" fill="#63C532"/>
        <path d="M83.651 54.796c.43 3.293 1.806 8.529 5.387 12.254 3.575 3.732 8.279 4.42 9.264 4.55.456.057.956-.06 1.332-.38.379-.319.571-.777.589-1.233.036-.985.117-5.696-3.02-9.793-3.138-4.099-8.129-6.29-11.35-7.246a1.726 1.726 0 0 0-1.62.317c-.46.388-.658.98-.582 1.531zM115.952 52.156c-3.258.807-8.346 2.78-11.664 6.732-3.325 3.954-3.465 8.657-3.475 9.638-.005.457.17.933.537 1.265.36.334.847.472 1.308.432.99-.079 5.729-.553 9.471-4.118 3.743-3.565 5.357-8.728 5.938-12.003a1.676 1.676 0 0 0-.51-1.555 1.739 1.739 0 0 0-1.605-.391zM83.412 76.047c-.497 3.44-.591 9.098 1.966 13.846 2.548 4.75 7.096 6.748 8.054 7.15a1.82 1.82 0 0 0 1.45-.013c.472-.216.794-.626.942-1.082.315-.982 1.728-5.71-.275-10.708-2.005-5-6.417-8.59-9.393-10.447a1.81 1.81 0 0 0-1.724-.129c-.574.265-.94.806-1.02 1.383zM116.725 82.325c-3.513-.088-9.2.493-13.664 3.56-4.47 3.064-5.942 7.768-6.23 8.755-.133.46-.092.987.185 1.423.268.435.72.71 1.196.799 1.02.193 5.931 1.027 10.713-1.532 4.782-2.556 7.87-7.316 9.384-10.457a1.76 1.76 0 0 0-.076-1.71 1.811 1.811 0 0 0-1.508-.838z" stroke="#00796D" stroke-width="2"/>
        <path d="M91.569 108.314c7.61-16.368 11.366-41.17 7.87-64.996M80.576 21.33c0 10.11 8.286 18.308 18.507 18.308 10.222 0 18.507-8.198 18.507-18.308 0-10.111-8.285-18.308-18.507-18.308-10.221 0-18.507 8.197-18.507 18.308z" stroke="#00796D" stroke-width="2"/>
        <path d="M117.59 21.33v3.48c0 10.111-8.285 18.307-18.507 18.307-10.221 0-18.507-8.196-18.507-18.308v-3.48" stroke="#00796D" stroke-width="2"/>
        <path d="M106.083 12.076h-9.338c-4.308 0-6.783 2.178-6.783 4.864 0 2.688 2.475 4.865 6.783 4.865.019 0-.017 0 0 0h4.674c.02 0-.015 0 0 0 4.31 0 6.786 2.179 6.786 4.866s-2.475 4.865-6.786 4.865h-9.336M99.078 12.03V8.054M99.078 35.583v-3.976M19.67 114.773c2.131-.18 5.615-.04 8.444 1.664 2.833 1.7 3.903 4.505 4.117 5.095.098.274.091.598-.06.872-.149.277-.412.457-.696.53-.616.155-3.572.841-6.575-.539-3.006-1.38-5.06-4.16-6.098-6.016a1.07 1.07 0 0 1-.018-1.042c.183-.335.528-.537.885-.564zM22.37 135.036c.067-2.117.623-5.52 2.664-8.098 2.04-2.584 4.985-3.305 5.6-3.443.288-.065.611-.022.87.16.258.176.41.458.449.748.083.62.425 3.604-1.315 6.393-1.74 2.787-4.774 4.48-6.758 5.281a1.1 1.1 0 0 1-1.049-.104 1.086 1.086 0 0 1-.462-.937z" stroke="#00796D" stroke-width="2"/>
        <path d="M46.653 131.458c1.793-1.98 4.281-5.542 4.692-9.638.417-4.094-1.621-7.276-2.057-7.933a1.377 1.377 0 0 0-.929-.6 1.382 1.382 0 0 0-1.064.292c-.622.493-3.551 2.908-4.422 6.93-.869 4.026.398 8.163 1.495 10.595.18.41.564.734 1.042.805a1.39 1.39 0 0 0 1.243-.451" fill="#63C532"/>
        <path d="M48.713 127.87c1.32-1.666 3.11-4.625 3.22-7.9.117-3.275-1.669-5.698-2.05-6.198a1.097 1.097 0 0 0-.77-.43 1.098 1.098 0 0 0-.83.288c-.468.423-2.67 2.493-3.15 5.734-.478 3.244.746 6.467 1.746 8.342.165.317.487.555.871.586.384.034.744-.142.963-.422zM33.06 114.53c1.827 1.103 5.008 2.51 8.307 2.234 3.302-.273 5.526-2.313 5.98-2.747.213-.202.353-.493.342-.808a1.061 1.061 0 0 0-.386-.78c-.48-.41-2.815-2.328-6.127-2.417-3.31-.088-6.403 1.495-8.169 2.698-.297.196-.5.542-.486.924.011.38.23.712.538.896z" stroke="#00796D" stroke-width="2"/>
        <path d="M53.231 103.987c-8.928 25.128-42.952 24.95-41.514 5.352M1.216 94.45c-.517 6.425 4.329 12.048 10.824 12.56 6.495.512 12.18-4.283 12.697-10.708.517-6.425-4.328-12.048-10.824-12.56-6.495-.511-12.18 4.283-12.697 10.708z" stroke="#00796D" stroke-width="2"/>
        <path d="m24.737 96.303-.178 2.211c-.517 6.426-6.202 11.22-12.697 10.708-6.495-.511-11.341-6.136-10.824-12.56l.178-2.212" stroke="#00796D" stroke-width="2"/>
        <path d="m17.898 89.846-5.933-.467c-2.739-.215-4.423 1.044-4.56 2.751-.138 1.709 1.323 3.216 4.061 3.432.012 0-.01-.001 0 0l2.97.234c.013 0-.01-.001 0 0 2.74.215 4.202 1.724 4.064 3.431-.138 1.708-1.822 2.968-4.56 2.752l-5.934-.467M13.449 89.466l.203-2.526M12.244 104.434l.203-2.527M176.69 88.539c0 6.196 5.076 11.218 11.34 11.218 6.263 0 11.34-5.022 11.34-11.218s-5.077-11.218-11.34-11.218c-6.264 0-11.34 5.022-11.34 11.218z" stroke="#00796D" stroke-width="2"/>
        <path d="M199.37 88.539v2.132c0 6.196-5.077 11.219-11.34 11.219-6.264 0-11.34-5.023-11.34-11.22V88.54" stroke="#00796D" stroke-width="2"/>
        <path d="M192.319 82.869h-5.722c-2.64 0-4.156 1.334-4.156 2.98 0 1.647 1.516 2.982 4.156 2.982.012 0-.01 0 0 0h2.865c.011 0-.01 0 0 0 2.64 0 4.157 1.334 4.157 2.981 0 1.647-1.516 2.981-4.157 2.981h-5.722M188.026 82.84v-2.435M188.026 97.273v-2.437" stroke="#00796D" stroke-width="2"/>
        <path stroke="#00796D" stroke-width="2" stroke-linecap="round" stroke-linejoin="round" d="M187.749 61.981v8.602M168.588 69.921l6.149 6.083M160.715 88.938h8.696M168.741 107.892l6.149-6.083M207.127 107.74l-6.149-6.083M215 88.723h-8.696M206.973 69.769l-6.149 6.083"/>
        <path d="M209.889 118.068c-4.14-.76-10.98-1.136-16.846 1.659-5.873 2.79-8.512 8.08-9.04 9.193-.247.518-.3 1.15-.055 1.718.234.567.716.975 1.263 1.168 1.17.42 6.822 2.323 12.968.191 6.144-2.133 10.705-7.186 13.096-10.619a2.102 2.102 0 0 0 .238-2.036 2.162 2.162 0 0 0-1.624-1.274" fill="#63C532"/>
        <path d="M170.198 112.399c-.192 3.315.182 8.711 3.005 13.027 2.816 4.32 7.31 5.859 8.254 6.165.438.14.95.116 1.38-.13.433-.244.706-.659.81-1.104.219-.96 1.179-5.576-1.138-10.176-2.32-4.601-6.816-7.667-9.802-9.196a1.728 1.728 0 0 0-1.652.015 1.71 1.71 0 0 0-.857 1.399zM202.436 115.709c-3.353.198-8.722 1.207-12.721 4.484-4.006 3.278-5.023 7.875-5.215 8.837-.091.447-.009.947.291 1.34.291.394.743.619 1.204.665.989.103 5.734.503 10.079-2.316 4.343-2.819 6.894-7.598 8.077-10.71a1.677 1.677 0 0 0-.21-1.623 1.736 1.736 0 0 0-1.505-.677z" stroke="#00796D" stroke-width="2"/>
        <path d="M167.981 166.442c10.537-14.694 18.861-38.384 19.877-62.438" stroke="#00796D" stroke-width="2"/>
    </g>
</svg>
