<?xml version="1.0" encoding="UTF-8" standalone="no"?>
<!-- Generator: Adobe Illustrator 19.2.1, SVG Export Plug-In . SVG Version: 6.00 Build 0)  -->

<svg
   xmlns:dc="http://purl.org/dc/elements/1.1/"
   xmlns:cc="http://creativecommons.org/ns#"
   xmlns:rdf="http://www.w3.org/1999/02/22-rdf-syntax-ns#"
   xmlns:svg="http://www.w3.org/2000/svg"
   xmlns="http://www.w3.org/2000/svg"
   xmlns:sodipodi="http://sodipodi.sourceforge.net/DTD/sodipodi-0.dtd"
   xmlns:inkscape="http://www.inkscape.org/namespaces/inkscape"
   version="1.1"
   id="layer"
   x="0px"
   y="0px"
   viewBox="0 0 599.90076 107.4"
   xml:space="preserve"
   sodipodi:docname="schroders-logo-white-solo.svg"
   width="599.90076"
   height="107.4"
   inkscape:version="0.92.4 (5da689c313, 2019-01-14)"><metadata
   id="metadata13"><rdf:RDF><cc:Work
       rdf:about=""><dc:format>image/svg+xml</dc:format><dc:type
         rdf:resource="http://purl.org/dc/dcmitype/StillImage" /><dc:title></dc:title></cc:Work></rdf:RDF></metadata><defs
   id="defs11" /><sodipodi:namedview
   pagecolor="#ffffff"
   bordercolor="#666666"
   borderopacity="1"
   objecttolerance="10"
   gridtolerance="10"
   guidetolerance="10"
   inkscape:pageopacity="0"
   inkscape:pageshadow="2"
   inkscape:window-width="1680"
   inkscape:window-height="987"
   id="namedview9"
   showgrid="false"
   inkscape:zoom="0.36196319"
   inkscape:cx="305.7"
   inkscape:cy="49.199998"
   inkscape:window-x="-8"
   inkscape:window-y="-8"
   inkscape:window-maximized="1"
   inkscape:current-layer="layer"
   fit-margin-top="0"
   fit-margin-left="0"
   fit-margin-right="0"
   fit-margin-bottom="0" />
<style
   type="text/css"
   id="style2">
	.st0{fill:#FFF;}
</style>
<g
   id="g6"
   transform="translate(-20.3,-267.8)">
	<path
   class="st0"
   d="m 287.6,304.6 -1.9,15.6 c -2.8,-1 -5.7,-1.5 -8.3,-1.5 -6.3,0 -11.7,3 -15.8,8.1 v 46.5 H 245.2 V 305 h 11.3 l 3.8,7.4 c 4.2,-5.1 10.4,-9 18.8,-9.1 2.8,0.1 5.6,0.4 8.5,1.3 m 249.7,7.9 -3.8,-7.4 h -11.3 v 68.3 h 16.4 v -46.5 c 4.1,-5 9.4,-8.1 15.8,-8.1 2.7,0 5.5,0.5 8.3,1.5 l 1.9,-15.6 c -2.9,-0.9 -5.8,-1.2 -8.4,-1.2 -8.6,0 -14.7,3.9 -18.9,9 m -330.4,-9.1 c -7.7,0 -14.8,3.1 -20.7,8.3 v -43.8 l -16.4,3.9 v 101.6 h 16.4 v -45.6 c 4,-4.9 9.9,-8.9 16.3,-8.9 10.1,0 15.9,6.2 15.9,21.2 v 33.2 h 16.3 v -33.8 c 0,-20.6 -9,-36.1 -27.8,-36.1 m -72.1,56 c -10.4,0 -19.2,-8.4 -19.2,-20.3 0,-11.8 8.4,-20 18.8,-20 6,0 12,3.3 16.2,8.8 l 12.2,-10.4 c -6.4,-8.3 -15.7,-14.1 -28.1,-14.1 -20.7,0 -35.9,16 -35.9,35.9 0,21.1 16.1,35.9 35.9,35.9 11.6,0 22.1,-5.4 28.8,-13.3 l -11.8,-10.5 c -4.9,5.4 -9.7,8 -16.9,8 M 64.7,314.5 C 63.1,314.1 58.7,313 56,312.3 46.1,310 39.9,307 39.9,300.2 c 0,-6.3 6.3,-12.1 15.8,-12.1 8.5,0 15,4.2 20.5,11.8 L 88.6,288.5 C 82.5,280.5 73,271.8 56,271.8 c -18.5,0 -34,12.7 -34,29.7 0,13.4 8.5,22.8 26.5,27.1 2.6,0.6 6.5,1.6 9.2,2.3 11.1,2.9 15.5,7.9 15.5,14.2 0,7.9 -7.7,13.4 -16.1,13.4 -7.5,0 -16.5,-2.7 -22.3,-14.5 l -14.5,8.8 c 4.8,11.3 18.1,22.4 36.1,22.4 20.7,0 35.1,-14 35.1,-30.1 0,-15.6 -9.4,-26.1 -26.8,-30.6 m 533.7,17.7 c -9.3,-2.1 -15,-4.4 -15,-8.7 0,-4 4.3,-6.4 10.3,-6.4 5.4,0 11.8,3.4 14.6,8.2 l 10.4,-9.3 c -4,-6.2 -12.7,-12.6 -25,-12.6 -12.8,0 -25.7,8.1 -25.7,20.8 0,11.9 9.3,17.7 25.9,21.6 6.2,1.5 11.1,3.8 11.1,8.2 0,3.9 -3.5,7.1 -10.2,7.1 -7.6,0 -14,-2.9 -19,-9.7 l -10.5,9.4 c 5.9,8.9 17.4,14.4 29.9,14.4 14.4,0 25,-9.6 25,-21.6 0.1,-12.4 -10.1,-18.7 -21.8,-21.4 m -311.2,7.1 c 0,18.9 14.2,34.2 33.5,35.8 v -15.4 c -10.1,-1.6 -16.8,-10.3 -16.8,-20.4 0,-10.8 7.1,-19 16.8,-20.6 v -15.4 c -19.3,1.7 -33.5,17.1 -33.5,36 m 40.3,-35.9 v 15.4 c 9.7,1.6 16.8,9.8 16.8,20.6 0,10.1 -6.8,18.8 -16.8,20.4 v 15.4 c 19.3,-1.6 33.5,-16.9 33.5,-35.8 0,-19 -14.2,-34.4 -33.5,-36 m 109.8,52.6 3.9,17.4 h -14.9 l -3.5,-6.5 c -5.2,4.6 -12.4,8.2 -21.2,8.2 -19.2,0 -33.6,-15.8 -33.6,-35.9 0,-20.8 15.9,-35.9 34.8,-35.9 6.9,0 13.1,2.5 18.1,6.3 v -37.9 l 16.4,-3.9 z M 421,324.5 c -4.2,-3.7 -9.7,-6.1 -16.5,-6.1 -10.9,0 -19.9,9 -19.9,20.6 0,13.3 9.4,21.2 19.6,21.2 6.4,0 12.5,-2.9 16.8,-7.2 z m 92.8,14.7 c 0,1.9 -0.1,4.6 -0.1,4.6 h -51.2 c 1.4,9.8 9.3,16.7 19.3,16.7 7.3,0 13.5,-3 18.1,-8.5 l 11,9.7 c -6.7,7.9 -16.6,13.3 -28.8,13.3 -19.8,0 -35.9,-15.1 -35.9,-36.2 0,-19.8 15.1,-35.5 34.9,-35.5 19,0.1 32.7,16 32.7,35.9 m -17,-7.6 c -1.1,-6.7 -7.3,-13.7 -16.7,-13.7 -8.4,0 -15.1,6 -17.2,13.7 z"
   id="path4"
   inkscape:connector-curvature="0"
   style="fill:#ffffff" />
</g>
</svg>